<?xml version="1.0" encoding="UTF-8"?>
<svg id="Layer_2" data-name="Layer 2" xmlns="http://www.w3.org/2000/svg" viewBox="0 0 889.9 946.89">
  <defs>
    <style>
      .cls-1 {
        fill: #fff;
      }
    </style>
  </defs>
  <g id="Layer_1-2" data-name="Layer 1">
    <g>
      <rect class="cls-1" x="628.67" width="3.98" height="3.98"/>
      <rect class="cls-1" x="643.02" width="3.98" height="3.98"/>
      <rect class="cls-1" x="635.96" y="14.07" width="3.98" height="3.98"/>
      <rect class="cls-1" x="642.94" y="28.52" width="3.98" height="3.98"/>
      <rect class="cls-1" x="650.05" y="42.74" width="3.98" height="3.98"/>
      <rect class="cls-1" x="650.13" y="49.92" width="3.98" height="3.98"/>
      <rect class="cls-1" x="642.86" y="57.01" width="3.98" height="3.98"/>
      <rect class="cls-1" x="657.29" y="57.01" width="3.98" height="3.98"/>
      <rect class="cls-1" x="657.29" y="85.15" width="3.98" height="3.98"/>
      <rect class="cls-1" x="664.59" y="99.98" width="3.98" height="3.98"/>
      <rect class="cls-1" x="664.59" y="106.92" width="3.98" height="3.98"/>
      <rect class="cls-1" x="671.56" y="114.22" width="3.98" height="3.98"/>
      <rect class="cls-1" x="657.36" y="114.22" width="3.98" height="3.98"/>
      <rect class="cls-1" x="664.3" y="128.34" width="3.98" height="3.98"/>
      <rect class="cls-1" x="671.59" y="142.69" width="3.98" height="3.98"/>
      <rect class="cls-1" x="678.74" y="157.15" width="3.98" height="3.98"/>
      <rect class="cls-1" x="678.78" y="164.17" width="3.98" height="3.98"/>
      <rect class="cls-1" x="671.67" y="171.16" width="3.98" height="3.98"/>
      <rect class="cls-1" x="685.95" y="171.16" width="3.98" height="3.98"/>
      <rect class="cls-1" x="728.87" y="171.12" width="3.98" height="3.98"/>
      <rect class="cls-1" x="721.58" y="185.55" width="3.98" height="3.98"/>
      <rect class="cls-1" x="721.48" y="192.62" width="3.98" height="3.98"/>
      <rect class="cls-1" x="693.09" y="185.58" width="3.98" height="3.98"/>
      <rect class="cls-1" x="678.62" y="185.47" width="3.98" height="3.98"/>
      <rect class="cls-1" x="678.62" y="192.76" width="3.98" height="3.98"/>
      <rect class="cls-1" x="692.95" y="192.84" width="3.98" height="3.98"/>
      <rect class="cls-1" x="671.72" y="199.77" width="3.98" height="3.98"/>
      <rect class="cls-1" x="685.89" y="199.73" width="3.98" height="3.98"/>
      <rect class="cls-1" x="700.34" y="199.76" width="3.98" height="3.98"/>
      <rect class="cls-1" x="714.42" y="199.72" width="3.98" height="3.98"/>
      <rect class="cls-1" x="700.09" y="206.83" width="3.98" height="3.98"/>
      <rect class="cls-1" x="686.05" y="206.88" width="3.98" height="3.98"/>
      <rect class="cls-1" x="678.62" y="214.08" width="3.98" height="3.98"/>
      <rect class="cls-1" x="692.71" y="214.12" width="3.98" height="3.98"/>
      <rect class="cls-1" x="707.12" y="214.12" width="3.98" height="3.98"/>
      <rect class="cls-1" x="678.62" y="221.06" width="3.98" height="3.98"/>
      <rect class="cls-1" x="692.71" y="221.1" width="3.98" height="3.98"/>
      <rect class="cls-1" x="707.12" y="221.1" width="3.98" height="3.98"/>
      <rect class="cls-1" x="700.19" y="228.37" width="3.98" height="3.98"/>
      <rect class="cls-1" x="685.78" y="228.37" width="3.98" height="3.98"/>
      <rect class="cls-1" x="671.57" y="228.37" width="3.98" height="3.98"/>
      <rect class="cls-1" x="657.23" y="228.37" width="3.98" height="3.98"/>
      <rect class="cls-1" x="671.54" y="228.49" width="3.98" height="3.98"/>
      <rect class="cls-1" x="685.84" y="228.49" width="3.98" height="3.98"/>
      <rect class="cls-1" x="700.14" y="228.49" width="3.98" height="3.98"/>
      <rect class="cls-1" x="707.22" y="242.76" width="3.98" height="3.98"/>
      <rect class="cls-1" x="700.03" y="235.22" width="3.98" height="3.98"/>
      <rect class="cls-1" x="685.77" y="235.22" width="3.98" height="3.98"/>
      <rect class="cls-1" x="671.46" y="235.22" width="3.98" height="3.98"/>
      <rect class="cls-1" x="678.67" y="242.67" width="3.98" height="3.98"/>
      <rect class="cls-1" x="692.74" y="242.67" width="3.98" height="3.98"/>
      <rect class="cls-1" x="664.19" y="242.67" width="3.98" height="3.98"/>
      <rect class="cls-1" x="693.07" y="249.83" width="3.98" height="3.98"/>
      <rect class="cls-1" x="685.8" y="257.07" width="3.98" height="3.98"/>
      <rect class="cls-1" x="700.06" y="257.07" width="3.98" height="3.98"/>
      <rect class="cls-1" x="700.06" y="263.97" width="3.98" height="3.98"/>
      <rect class="cls-1" x="693.15" y="271.31" width="3.98" height="3.98"/>
      <rect class="cls-1" x="692.93" y="278.27" width="3.98" height="3.98"/>
      <rect class="cls-1" x="686.02" y="285.49" width="3.98" height="3.98"/>
      <rect class="cls-1" x="699.99" y="285.49" width="3.98" height="3.98"/>
      <rect class="cls-1" x="699.99" y="292.78" width="3.98" height="3.98"/>
      <rect class="cls-1" x="693.11" y="299.8" width="3.98" height="3.98"/>
      <rect class="cls-1" x="707.18" y="299.8" width="3.98" height="3.98"/>
      <rect class="cls-1" x="700.13" y="314.15" width="3.98" height="3.98"/>
      <rect class="cls-1" x="692.99" y="328.36" width="3.98" height="3.98"/>
      <rect class="cls-1" x="707.39" y="328.36" width="3.98" height="3.98"/>
      <rect class="cls-1" x="700.16" y="342.83" width="3.98" height="3.98"/>
      <rect class="cls-1" x="707.41" y="357.16" width="3.98" height="3.98"/>
      <rect class="cls-1" x="700.23" y="371.26" width="3.98" height="3.98"/>
      <rect class="cls-1" x="707.39" y="385.49" width="3.98" height="3.98"/>
      <rect class="cls-1" x="707.45" y="392.66" width="3.98" height="3.98"/>
      <rect class="cls-1" x="707.39" y="414.37" width="3.98" height="3.98"/>
      <rect class="cls-1" x="707.45" y="421.54" width="3.98" height="3.98"/>
      <rect class="cls-1" x="700.21" y="428.38" width="3.98" height="3.98"/>
      <rect class="cls-1" x="714.33" y="428.38" width="3.98" height="3.98"/>
      <rect class="cls-1" x="707.29" y="442.54" width="3.98" height="3.98"/>
      <rect class="cls-1" x="707.23" y="449.72" width="3.98" height="3.98"/>
      <rect class="cls-1" x="721.67" y="449.72" width="3.98" height="3.98"/>
      <rect class="cls-1" x="735.91" y="449.72" width="3.98" height="3.98"/>
      <rect class="cls-1" x="750.11" y="442.89" width="3.98" height="3.98"/>
      <rect class="cls-1" x="764.41" y="442.89" width="3.98" height="3.98"/>
      <rect class="cls-1" x="764.41" y="449.99" width="3.98" height="3.98"/>
      <rect class="cls-1" x="750.1" y="449.99" width="3.98" height="3.98"/>
      <rect class="cls-1" x="700.07" y="456.89" width="3.98" height="3.98"/>
      <rect class="cls-1" x="714.51" y="456.89" width="3.98" height="3.98"/>
      <rect class="cls-1" x="728.75" y="456.89" width="3.98" height="3.98"/>
      <rect class="cls-1" x="757.24" y="457.17" width="3.98" height="3.98"/>
      <rect class="cls-1" x="742.94" y="457.17" width="3.98" height="3.98"/>
      <rect class="cls-1" x="707.24" y="471.12" width="3.98" height="3.98"/>
      <rect class="cls-1" x="721.48" y="471.12" width="3.98" height="3.98"/>
      <rect class="cls-1" x="749.98" y="471.39" width="3.98" height="3.98"/>
      <rect class="cls-1" x="735.67" y="471.39" width="3.98" height="3.98"/>
      <rect class="cls-1" x="714.51" y="464.31" width="3.98" height="3.98"/>
      <rect class="cls-1" x="728.75" y="464.31" width="3.98" height="3.98"/>
      <rect class="cls-1" x="742.94" y="464.59" width="3.98" height="3.98"/>
      <rect class="cls-1" x="707.06" y="478.54" width="3.98" height="3.98"/>
      <rect class="cls-1" x="721.3" y="478.54" width="3.98" height="3.98"/>
      <rect class="cls-1" x="735.49" y="478.82" width="3.98" height="3.98"/>
      <rect class="cls-1" x="742.82" y="485.7" width="3.98" height="3.98"/>
      <rect class="cls-1" x="699.98" y="485.52" width="3.98" height="3.98"/>
      <rect class="cls-1" x="714.21" y="485.52" width="3.98" height="3.98"/>
      <rect class="cls-1" x="728.4" y="485.8" width="3.98" height="3.98"/>
      <rect class="cls-1" x="735.67" y="499.65" width="3.98" height="3.98"/>
      <rect class="cls-1" x="692.83" y="499.48" width="3.98" height="3.98"/>
      <rect class="cls-1" x="707.06" y="499.48" width="3.98" height="3.98"/>
      <rect class="cls-1" x="721.25" y="499.76" width="3.98" height="3.98"/>
      <rect class="cls-1" x="736.02" y="506.98" width="3.98" height="3.98"/>
      <rect class="cls-1" x="693.17" y="506.81" width="3.98" height="3.98"/>
      <rect class="cls-1" x="707.41" y="506.81" width="3.98" height="3.98"/>
      <rect class="cls-1" x="721.6" y="507.08" width="3.98" height="3.98"/>
      <rect class="cls-1" x="728.69" y="514.13" width="3.98" height="3.98"/>
      <rect class="cls-1" x="685.85" y="513.96" width="3.98" height="3.98"/>
      <rect class="cls-1" x="700.08" y="513.96" width="3.98" height="3.98"/>
      <rect class="cls-1" x="714.27" y="514.24" width="3.98" height="3.98"/>
      <rect class="cls-1" x="721.64" y="528.61" width="3.98" height="3.98"/>
      <rect class="cls-1" x="678.8" y="528.44" width="3.98" height="3.98"/>
      <rect class="cls-1" x="693.03" y="528.44" width="3.98" height="3.98"/>
      <rect class="cls-1" x="707.22" y="528.71" width="3.98" height="3.98"/>
      <rect class="cls-1" x="721.64" y="535.42" width="3.98" height="3.98"/>
      <rect class="cls-1" x="678.8" y="535.24" width="3.98" height="3.98"/>
      <rect class="cls-1" x="693.03" y="535.24" width="3.98" height="3.98"/>
      <rect class="cls-1" x="707.22" y="535.52" width="3.98" height="3.98"/>
      <rect class="cls-1" x="700.36" y="542.93" width="3.98" height="3.98"/>
      <rect class="cls-1" x="657.52" y="542.75" width="3.98" height="3.98"/>
      <rect class="cls-1" x="671.75" y="542.75" width="3.98" height="3.98"/>
      <rect class="cls-1" x="685.94" y="543.03" width="3.98" height="3.98"/>
      <rect class="cls-1" x="714.4" y="542.75" width="3.98" height="3.98"/>
      <rect class="cls-1" x="700.36" y="549.84" width="3.98" height="3.98"/>
      <rect class="cls-1" x="671.75" y="549.67" width="3.98" height="3.98"/>
      <rect class="cls-1" x="685.94" y="549.94" width="3.98" height="3.98"/>
      <rect class="cls-1" x="714.4" y="549.67" width="3.98" height="3.98"/>
      <rect class="cls-1" x="721.41" y="557.12" width="3.98" height="3.98"/>
      <rect class="cls-1" x="693.02" y="557.17" width="3.98" height="3.98"/>
      <rect class="cls-1" x="664.41" y="557" width="3.98" height="3.98"/>
      <rect class="cls-1" x="650.08" y="564.16" width="3.98" height="3.98"/>
      <rect class="cls-1" x="678.6" y="557.28" width="3.98" height="3.98"/>
      <rect class="cls-1" x="707.06" y="557" width="3.98" height="3.98"/>
      <rect class="cls-1" x="721.41" y="564.21" width="3.98" height="3.98"/>
      <rect class="cls-1" x="693.02" y="564.27" width="3.98" height="3.98"/>
      <rect class="cls-1" x="664.41" y="564.09" width="3.98" height="3.98"/>
      <rect class="cls-1" x="678.6" y="564.37" width="3.98" height="3.98"/>
      <rect class="cls-1" x="642.89" y="571.56" width="3.98" height="3.98"/>
      <rect class="cls-1" x="707.06" y="564.09" width="3.98" height="3.98"/>
      <rect class="cls-1" x="657.41" y="571.61" width="3.98" height="3.98"/>
      <rect class="cls-1" x="728.75" y="571.66" width="3.98" height="3.98"/>
      <rect class="cls-1" x="700.35" y="571.72" width="3.98" height="3.98"/>
      <rect class="cls-1" x="671.74" y="571.55" width="3.98" height="3.98"/>
      <rect class="cls-1" x="685.93" y="571.82" width="3.98" height="3.98"/>
      <rect class="cls-1" x="714.39" y="571.55" width="3.98" height="3.98"/>
      <rect class="cls-1" x="642.89" y="577.95" width="3.98" height="3.98"/>
      <rect class="cls-1" x="657.41" y="578" width="3.98" height="3.98"/>
      <rect class="cls-1" x="700.35" y="578.11" width="3.98" height="3.98"/>
      <rect class="cls-1" x="671.74" y="577.93" width="3.98" height="3.98"/>
      <rect class="cls-1" x="685.93" y="578.21" width="3.98" height="3.98"/>
      <rect class="cls-1" x="714.39" y="577.93" width="3.98" height="3.98"/>
      <rect class="cls-1" x="635.72" y="585.75" width="3.98" height="3.98"/>
      <rect class="cls-1" x="650.24" y="585.8" width="3.98" height="3.98"/>
      <rect class="cls-1" x="693.18" y="585.91" width="3.98" height="3.98"/>
      <rect class="cls-1" x="664.57" y="585.74" width="3.98" height="3.98"/>
      <rect class="cls-1" x="678.76" y="586.01" width="3.98" height="3.98"/>
      <rect class="cls-1" x="707.22" y="585.74" width="3.98" height="3.98"/>
      <rect class="cls-1" x="721.43" y="585.74" width="3.98" height="3.98"/>
      <rect class="cls-1" x="635.72" y="592.85" width="3.98" height="3.98"/>
      <rect class="cls-1" x="614.51" y="599.84" width="3.98" height="3.98"/>
      <rect class="cls-1" x="650.24" y="592.9" width="3.98" height="3.98"/>
      <rect class="cls-1" x="693.18" y="593.01" width="3.98" height="3.98"/>
      <rect class="cls-1" x="664.57" y="592.83" width="3.98" height="3.98"/>
      <rect class="cls-1" x="678.76" y="593.11" width="3.98" height="3.98"/>
      <rect class="cls-1" x="707.22" y="592.83" width="3.98" height="3.98"/>
      <rect class="cls-1" x="721.43" y="592.83" width="3.98" height="3.98"/>
      <rect class="cls-1" x="628.7" y="600.06" width="3.98" height="3.98"/>
      <rect class="cls-1" x="643.22" y="600.11" width="3.98" height="3.98"/>
      <rect class="cls-1" x="686.16" y="600.22" width="3.98" height="3.98"/>
      <rect class="cls-1" x="657.55" y="600.05" width="3.98" height="3.98"/>
      <rect class="cls-1" x="614.51" y="606.95" width="3.98" height="3.98"/>
      <rect class="cls-1" x="628.7" y="607.17" width="3.98" height="3.98"/>
      <rect class="cls-1" x="643.22" y="607.22" width="3.98" height="3.98"/>
      <rect class="cls-1" x="657.55" y="607.15" width="3.98" height="3.98"/>
      <rect class="cls-1" x="607.2" y="613.86" width="3.98" height="3.98"/>
      <rect class="cls-1" x="621.4" y="614.08" width="3.98" height="3.98"/>
      <rect class="cls-1" x="635.91" y="614.13" width="3.98" height="3.98"/>
      <rect class="cls-1" x="607.2" y="621.29" width="3.98" height="3.98"/>
      <rect class="cls-1" x="621.4" y="621.52" width="3.98" height="3.98"/>
      <rect class="cls-1" x="635.91" y="621.57" width="3.98" height="3.98"/>
      <rect class="cls-1" x="642.97" y="628.67" width="3.98" height="3.98"/>
      <rect class="cls-1" x="650.25" y="614.07" width="3.98" height="3.98"/>
      <rect class="cls-1" x="585.5" y="628.2" width="3.98" height="3.98"/>
      <rect class="cls-1" x="599.7" y="628.43" width="3.98" height="3.98"/>
      <rect class="cls-1" x="614.21" y="628.48" width="3.98" height="3.98"/>
      <rect class="cls-1" x="614.21" y="635.66" width="3.98" height="3.98"/>
      <rect class="cls-1" x="621.57" y="642.77" width="3.98" height="3.98"/>
      <rect class="cls-1" x="607.28" y="642.77" width="3.98" height="3.98"/>
      <rect class="cls-1" x="592.89" y="642.77" width="3.98" height="3.98"/>
      <rect class="cls-1" x="578.82" y="642.77" width="3.98" height="3.98"/>
      <rect class="cls-1" x="592.89" y="649.75" width="3.98" height="3.98"/>
      <rect class="cls-1" x="578.82" y="649.75" width="3.98" height="3.98"/>
      <rect class="cls-1" x="571.51" y="657.11" width="3.98" height="3.98"/>
      <rect class="cls-1" x="557.44" y="657.11" width="3.98" height="3.98"/>
      <rect class="cls-1" x="599.95" y="657.11" width="3.98" height="3.98"/>
      <rect class="cls-1" x="585.87" y="657.11" width="3.98" height="3.98"/>
      <rect class="cls-1" x="550.06" y="671.2" width="3.98" height="3.98"/>
      <rect class="cls-1" x="578.5" y="671.2" width="3.98" height="3.98"/>
      <rect class="cls-1" x="564.42" y="671.2" width="3.98" height="3.98"/>
      <rect class="cls-1" x="535.95" y="678.43" width="3.98" height="3.98"/>
      <rect class="cls-1" x="514.5" y="685.67" width="3.98" height="3.98"/>
      <rect class="cls-1" x="528.8" y="685.67" width="3.98" height="3.98"/>
      <rect class="cls-1" x="543.17" y="685.67" width="3.98" height="3.98"/>
      <rect class="cls-1" x="557.28" y="685.67" width="3.98" height="3.98"/>
      <rect class="cls-1" x="485.82" y="714.34" width="3.98" height="3.98"/>
      <rect class="cls-1" x="500.13" y="714.34" width="3.98" height="3.98"/>
      <rect class="cls-1" x="514.5" y="714.34" width="3.98" height="3.98"/>
      <rect class="cls-1" x="521.66" y="728.56" width="3.98" height="3.98"/>
      <rect class="cls-1" x="507.3" y="728.56" width="3.98" height="3.98"/>
      <rect class="cls-1" x="478.51" y="728.56" width="3.98" height="3.98"/>
      <rect class="cls-1" x="464.35" y="735.58" width="3.98" height="3.98"/>
      <rect class="cls-1" x="507.32" y="735.59" width="3.98" height="3.98"/>
      <rect class="cls-1" x="499.9" y="742.93" width="3.98" height="3.98"/>
      <rect class="cls-1" x="485.61" y="742.93" width="3.98" height="3.98" transform="translate(1232.51 257.32) rotate(90)"/>
      <rect class="cls-1" x="457.13" y="742.93" width="3.98" height="3.98" transform="translate(1204.03 285.8) rotate(90)"/>
      <rect class="cls-1" x="442.82" y="742.93" width="3.98" height="3.98" transform="translate(1189.72 300.11) rotate(90)"/>
      <rect class="cls-1" x="428.58" y="742.93" width="3.98" height="3.98" transform="translate(1175.48 314.35) rotate(90)"/>
      <rect class="cls-1" x="421.55" y="757.24" width="3.98" height="3.98" transform="translate(1182.76 335.69) rotate(90)"/>
      <rect class="cls-1" x="435.66" y="757.24" width="3.98" height="3.98" transform="translate(1196.87 321.58) rotate(90)"/>
      <rect class="cls-1" x="478.45" y="757.24" width="3.98" height="3.98" transform="translate(1239.67 278.79) rotate(90)"/>
      <rect class="cls-1" x="492.95" y="757.24" width="3.98" height="3.98" transform="translate(1254.17 264.29) rotate(90)"/>
      <rect class="cls-1" x="478.65" y="764.23" width="3.98" height="3.98" transform="translate(1246.85 285.58) rotate(90)"/>
      <rect class="cls-1" x="471.57" y="771.28" width="3.98" height="3.98" transform="translate(1246.82 299.71) rotate(90)"/>
      <rect class="cls-1" x="456.96" y="771.28" width="3.98" height="3.98" transform="translate(1232.22 314.32) rotate(90)"/>
      <rect class="cls-1" x="414.13" y="771.28" width="3.98" height="3.98" transform="translate(1189.39 357.15) rotate(90)"/>
      <rect class="cls-1" x="400" y="771.28" width="3.98" height="3.98" transform="translate(1175.26 371.28) rotate(90)"/>
      <rect class="cls-1" x="385.97" y="771.28" width="3.98" height="3.98" transform="translate(1161.22 385.32) rotate(90)"/>
      <rect class="cls-1" x="378.56" y="785.45" width="3.98" height="3.98" transform="translate(1167.99 406.88) rotate(90)"/>
      <rect class="cls-1" x="364.25" y="785.45" width="3.98" height="3.98" transform="translate(1153.68 421.19) rotate(90)"/>
      <rect class="cls-1" x="364.25" y="792.92" width="3.98" height="3.98" transform="translate(1161.15 428.66) rotate(90)"/>
      <rect class="cls-1" x="357.17" y="799.77" width="3.98" height="3.98" transform="translate(1160.92 442.6) rotate(90)"/>
      <rect class="cls-1" x="342.97" y="799.77" width="3.98" height="3.98" transform="translate(1146.71 456.8) rotate(90)"/>
      <rect class="cls-1" x="328.62" y="799.77" width="3.98" height="3.98" transform="translate(1132.36 471.15) rotate(90)"/>
      <rect class="cls-1" x="314.19" y="799.77" width="3.98" height="3.98" transform="translate(1117.94 485.58) rotate(90)"/>
      <rect class="cls-1" x="321.51" y="814.25" width="3.98" height="3.98" transform="translate(1139.74 492.75) rotate(90)"/>
      <rect class="cls-1" x="307.06" y="814.25" width="3.98" height="3.98" transform="translate(1125.29 507.19) rotate(90)"/>
      <rect class="cls-1" x="292.8" y="814.25" width="3.98" height="3.98" transform="translate(1111.03 521.45) rotate(90)"/>
      <rect class="cls-1" x="292.8" y="821.39" width="3.98" height="3.98" transform="translate(1118.17 528.58) rotate(90)"/>
      <rect class="cls-1" x="300.06" y="828.45" width="3.98" height="3.98" transform="translate(1132.49 528.39) rotate(90)"/>
      <rect class="cls-1" x="285.8" y="828.51" width="3.98" height="3.98" transform="translate(1118.29 542.7) rotate(90)"/>
      <rect class="cls-1" x="271.33" y="828.51" width="3.98" height="3.98" transform="translate(1103.82 557.17) rotate(90)"/>
      <rect class="cls-1" x="257.09" y="828.33" width="3.98" height="3.98" transform="translate(1089.4 571.24) rotate(90)"/>
      <rect class="cls-1" x="242.78" y="828.33" width="3.98" height="3.98" transform="translate(1075.09 585.55) rotate(90)"/>
      <rect class="cls-1" x="228.57" y="828.33" width="3.98" height="3.98" transform="translate(1060.87 599.76) rotate(90)"/>
      <rect class="cls-1" x="214.34" y="828.33" width="3.98" height="3.98" transform="translate(1046.64 613.99) rotate(90)"/>
      <rect class="cls-1" x="249.8" y="842.89" width="3.98" height="3.98" transform="translate(1096.67 593.1) rotate(90)"/>
      <rect class="cls-1" x="235.56" y="842.72" width="3.98" height="3.98" transform="translate(1082.25 607.16) rotate(90)"/>
      <rect class="cls-1" x="221.24" y="842.72" width="3.98" height="3.98" transform="translate(1067.93 621.47) rotate(90)"/>
      <rect class="cls-1" x="207.03" y="842.72" width="3.98" height="3.98" transform="translate(1053.72 635.68) rotate(90)"/>
      <rect class="cls-1" x="192.8" y="842.72" width="3.98" height="3.98" transform="translate(1039.49 649.92) rotate(90)"/>
      <rect class="cls-1" x="178.71" y="842.72" width="3.98" height="3.98" transform="translate(1025.4 664) rotate(90)"/>
      <rect class="cls-1" x="221.31" y="849.96" width="3.98" height="3.98" transform="translate(1075.25 628.65) rotate(90)"/>
      <rect class="cls-1" x="207" y="849.96" width="3.98" height="3.98" transform="translate(1060.93 642.96) rotate(90)"/>
      <rect class="cls-1" x="192.79" y="849.96" width="3.98" height="3.98" transform="translate(1046.72 657.17) rotate(90)"/>
      <rect class="cls-1" x="178.55" y="849.96" width="3.98" height="3.98" transform="translate(1032.49 671.4) rotate(90)"/>
      <rect class="cls-1" x="164.47" y="849.96" width="3.98" height="3.98" transform="translate(1018.4 685.49) rotate(90)"/>
      <rect class="cls-1" x="214.15" y="857.12" width="3.98" height="3.98" transform="translate(1075.25 642.97) rotate(90)"/>
      <rect class="cls-1" x="199.84" y="857.12" width="3.98" height="3.98" transform="translate(1060.93 657.28) rotate(90)"/>
      <rect class="cls-1" x="185.62" y="857.12" width="3.98" height="3.98" transform="translate(1046.72 671.49) rotate(90)"/>
      <rect class="cls-1" x="171.39" y="857.12" width="3.98" height="3.98" transform="translate(1032.49 685.73) rotate(90)"/>
      <rect class="cls-1" x="157.31" y="857.12" width="3.98" height="3.98" transform="translate(1018.4 699.81) rotate(90)"/>
      <rect class="cls-1" x="143.05" y="857.12" width="3.98" height="3.98" transform="translate(1004.15 714.07) rotate(90)"/>
      <rect class="cls-1" x="128.74" y="857.12" width="3.98" height="3.98" transform="translate(989.84 728.38) rotate(90)"/>
      <rect class="cls-1" x="114.53" y="857.12" width="3.98" height="3.98" transform="translate(975.62 742.59) rotate(90)"/>
      <rect class="cls-1" x="100.3" y="857.12" width="3.98" height="3.98" transform="translate(961.39 756.82) rotate(90)"/>
      <rect class="cls-1" x="135.77" y="871.33" width="3.98" height="3.98" transform="translate(1011.07 735.56) rotate(90)"/>
      <rect class="cls-1" x="142.93" y="864.16" width="3.98" height="3.98" transform="translate(1011.07 721.23) rotate(90)"/>
      <rect class="cls-1" x="128.93" y="864.16" width="3.98" height="3.98" transform="translate(997.07 735.24) rotate(90)"/>
      <rect class="cls-1" x="92.66" y="878.49" width="3.98" height="3.98" transform="translate(975.13 785.84) rotate(90)"/>
      <rect class="cls-1" x="78.65" y="878.49" width="3.98" height="3.98" transform="translate(961.12 799.84) rotate(90)"/>
      <rect class="cls-1" x="121.45" y="871.33" width="3.98" height="3.98" transform="translate(996.76 749.88) rotate(90)"/>
      <rect class="cls-1" x="107.24" y="871.33" width="3.98" height="3.98" transform="translate(982.55 764.09) rotate(90)"/>
      <rect class="cls-1" x="93.01" y="871.33" width="3.98" height="3.98" transform="translate(968.32 778.32) rotate(90)"/>
      <rect class="cls-1" x="85.62" y="885.58" width="3.98" height="3.98" transform="translate(975.18 799.97) rotate(90)"/>
      <rect class="cls-1" x="71.3" y="885.58" width="3.98" height="3.98" transform="translate(960.86 814.28) rotate(90)"/>
      <rect class="cls-1" x="57.09" y="885.58" width="3.98" height="3.98" transform="translate(946.65 828.49) rotate(90)"/>
      <rect class="cls-1" x="42.86" y="885.58" width="3.98" height="3.98" transform="translate(932.42 842.73) rotate(90)"/>
      <rect class="cls-1" x="28.52" y="885.58" width="3.98" height="3.98" transform="translate(918.09 857.06) rotate(90)"/>
      <rect class="cls-1" x="14.21" y="885.58" width="3.98" height="3.98" transform="translate(903.77 871.37) rotate(90)"/>
      <rect class="cls-1" y="885.58" width="3.98" height="3.98" transform="translate(889.56 885.58) rotate(90)"/>
      <rect class="cls-1" x="450.2" y="785.63" width="3.98" height="3.98" transform="translate(1239.8 335.43) rotate(90)"/>
      <rect class="cls-1" x="450.2" y="792.66" width="3.98" height="3.98" transform="translate(1246.83 342.46) rotate(90)"/>
      <rect class="cls-1" x="442.74" y="799.99" width="3.98" height="3.98" transform="translate(1246.7 357.25) rotate(90)"/>
      <rect class="cls-1" x="428.71" y="799.99" width="3.98" height="3.98" transform="translate(1232.68 371.28) rotate(90)"/>
      <rect class="cls-1" x="421.48" y="814.22" width="3.98" height="3.98" transform="translate(1239.67 392.75) rotate(90)"/>
      <rect class="cls-1" x="414.42" y="828.52" width="3.98" height="3.98" transform="translate(1246.92 414.1) rotate(90)"/>
      <rect class="cls-1" x="400.16" y="828.52" width="3.98" height="3.98" transform="translate(1232.65 428.36) rotate(90)"/>
      <rect class="cls-1" x="393.04" y="842.8" width="3.98" height="3.98" transform="translate(1239.81 449.76) rotate(90)"/>
      <rect class="cls-1" x="393.04" y="850.1" width="3.98" height="3.98" transform="translate(1247.11 457.06) rotate(90)"/>
      <rect class="cls-1" x="385.89" y="857.11" width="3.98" height="3.98" transform="translate(1246.97 471.22) rotate(90)"/>
      <rect class="cls-1" x="371.66" y="857.11" width="3.98" height="3.98" transform="translate(1232.75 485.44) rotate(90)"/>
      <rect class="cls-1" x="364.19" y="871.45" width="3.98" height="3.98" transform="translate(1239.61 507.26) rotate(90)"/>
      <rect class="cls-1" x="364.19" y="878.59" width="3.98" height="3.98" transform="translate(1246.76 514.41) rotate(90)"/>
      <rect class="cls-1" x="357.02" y="885.76" width="3.98" height="3.98" transform="translate(-528.73 1246.76) rotate(-90)"/>
      <rect class="cls-1" x="342.73" y="885.76" width="3.98" height="3.98" transform="translate(-543.02 1232.46) rotate(-90)"/>
      <rect class="cls-1" x="335.8" y="900.14" width="3.98" height="3.98" transform="translate(-564.35 1239.91) rotate(-90)"/>
      <rect class="cls-1" x="335.77" y="907.25" width="3.98" height="3.98" transform="translate(-571.48 1247) rotate(-90)"/>
      <rect class="cls-1" x="328.6" y="914.42" width="3.98" height="3.98" transform="translate(-585.82 1247) rotate(-90)"/>
      <rect class="cls-1" x="314.25" y="914.37" width="3.98" height="3.98" transform="translate(-600.12 1232.6) rotate(-90)"/>
      <rect class="cls-1" x="307.21" y="928.49" width="3.98" height="3.98" transform="translate(-621.28 1239.68) rotate(-90)"/>
      <rect class="cls-1" x="307.38" y="935.81" width="3.98" height="3.98" transform="translate(-628.42 1247.17) rotate(-90)"/>
      <rect class="cls-1" x="300.03" y="942.91" width="3.98" height="3.98" transform="translate(-642.88 1246.92) rotate(-90)"/>
      <rect class="cls-1" x="464.15" y="728.56" width="3.98" height="3.98"/>
      <rect class="cls-1" x="550.06" y="699.88" width="3.98" height="3.98"/>
      <rect class="cls-1" x="535.61" y="699.88" width="3.98" height="3.98"/>
      <rect class="cls-1" x="535.61" y="707.37" width="3.98" height="3.98"/>
      <rect class="cls-1" x="542.95" y="714.23" width="3.98" height="3.98"/>
      <rect class="cls-1" x="507.09" y="699.88" width="3.98" height="3.98"/>
      <rect class="cls-1" x="564.38" y="678.43" width="3.98" height="3.98"/>
      <rect class="cls-1" x="628.55" y="628.41" width="3.98" height="3.98"/>
      <rect class="cls-1" x="671.74" y="600.32" width="3.98" height="3.98"/>
      <rect class="cls-1" x="700.2" y="600.05" width="3.98" height="3.98"/>
      <rect class="cls-1" x="714.41" y="600.05" width="3.98" height="3.98"/>
      <rect class="cls-1" x="714.41" y="607.14" width="3.98" height="3.98"/>
      <rect class="cls-1" x="721.52" y="614.25" width="3.98" height="3.98"/>
      <rect class="cls-1" x="721.52" y="621.38" width="3.98" height="3.98"/>
      <rect class="cls-1" x="721.52" y="642.86" width="3.98" height="3.98"/>
      <rect class="cls-1" x="721.52" y="649.99" width="3.98" height="3.98"/>
      <rect class="cls-1" x="714.51" y="628.39" width="3.98" height="3.98"/>
      <rect class="cls-1" x="728.47" y="628.39" width="3.98" height="3.98"/>
      <rect class="cls-1" x="714.51" y="657.05" width="3.98" height="3.98"/>
      <rect class="cls-1" x="728.47" y="657.05" width="3.98" height="3.98"/>
      <rect class="cls-1" x="721.52" y="671.44" width="3.98" height="3.98"/>
      <rect class="cls-1" x="721.52" y="678.57" width="3.98" height="3.98"/>
      <rect class="cls-1" x="715.1" y="686.31" width="3.98" height="3.98"/>
      <rect class="cls-1" x="728.47" y="685.63" width="3.98" height="3.98"/>
      <rect class="cls-1" x="721.52" y="699.94" width="3.98" height="3.98"/>
      <rect class="cls-1" x="721.52" y="707.07" width="3.98" height="3.98"/>
      <rect class="cls-1" x="714.51" y="714.13" width="3.98" height="3.98"/>
      <rect class="cls-1" x="728.47" y="714.13" width="3.98" height="3.98"/>
      <rect class="cls-1" x="721.52" y="728.56" width="3.98" height="3.98"/>
      <rect class="cls-1" x="721.52" y="735.69" width="3.98" height="3.98"/>
      <rect class="cls-1" x="721.52" y="757.1" width="3.98" height="3.98"/>
      <rect class="cls-1" x="721.52" y="764.23" width="3.98" height="3.98"/>
      <rect class="cls-1" x="728.63" y="771.41" width="3.98" height="3.98"/>
      <rect class="cls-1" x="728.63" y="778.54" width="3.98" height="3.98"/>
      <rect class="cls-1" x="728.63" y="800.09" width="3.98" height="3.98"/>
      <rect class="cls-1" x="728.63" y="828.53" width="3.98" height="3.98"/>
      <rect class="cls-1" x="728.63" y="857.15" width="3.98" height="3.98"/>
      <rect class="cls-1" x="714.51" y="742.75" width="3.98" height="3.98"/>
      <rect class="cls-1" x="728.47" y="742.75" width="3.98" height="3.98"/>
      <rect class="cls-1" x="721.65" y="785.48" width="3.98" height="3.98"/>
      <rect class="cls-1" x="735.61" y="785.48" width="3.98" height="3.98"/>
      <rect class="cls-1" x="721.65" y="814.1" width="3.98" height="3.98"/>
      <rect class="cls-1" x="735.61" y="814.1" width="3.98" height="3.98"/>
      <rect class="cls-1" x="721.65" y="842.84" width="3.98" height="3.98"/>
      <rect class="cls-1" x="735.61" y="842.84" width="3.98" height="3.98"/>
      <rect class="cls-1" x="735.52" y="756.99" width="3.98" height="3.98"/>
      <rect class="cls-1" x="728.54" y="600.05" width="3.98" height="3.98"/>
      <rect class="cls-1" x="728.64" y="542.75" width="3.98" height="3.98"/>
      <rect class="cls-1" x="685.85" y="521.01" width="3.98" height="3.98"/>
      <rect class="cls-1" x="700.08" y="521.01" width="3.98" height="3.98"/>
      <rect class="cls-1" x="714.27" y="521.29" width="3.98" height="3.98"/>
      <rect class="cls-1" x="700.08" y="492.5" width="3.98" height="3.98"/>
      <rect class="cls-1" x="714.32" y="492.5" width="3.98" height="3.98"/>
      <rect class="cls-1" x="728.51" y="492.78" width="3.98" height="3.98"/>
      <rect class="cls-1" x="757.16" y="435.58" width="3.98" height="3.98"/>
      <rect class="cls-1" x="757.18" y="428.42" width="3.98" height="3.98"/>
      <rect class="cls-1" x="771.45" y="428.46" width="3.98" height="3.98"/>
      <rect class="cls-1" x="764.3" y="421.28" width="3.98" height="3.98"/>
      <rect class="cls-1" x="764.3" y="414.28" width="3.98" height="3.98"/>
      <rect class="cls-1" x="771.58" y="407.1" width="3.98" height="3.98"/>
      <rect class="cls-1" x="771.62" y="399.8" width="3.98" height="3.98"/>
      <rect class="cls-1" x="785.9" y="399.82" width="3.98" height="3.98"/>
      <rect class="cls-1" x="778.74" y="392.81" width="3.98" height="3.98"/>
      <rect class="cls-1" x="792.93" y="392.73" width="3.98" height="3.98"/>
      <rect class="cls-1" x="800.2" y="399.97" width="3.98" height="3.98"/>
      <rect class="cls-1" x="793.06" y="385.63" width="3.98" height="3.98"/>
      <rect class="cls-1" x="800.01" y="371.32" width="3.98" height="3.98"/>
      <rect class="cls-1" x="814.41" y="371.21" width="3.98" height="3.98"/>
      <rect class="cls-1" x="807.23" y="364.14" width="3.98" height="3.98"/>
      <rect class="cls-1" x="807.23" y="356.81" width="3.98" height="3.98"/>
      <rect class="cls-1" x="814.49" y="342.55" width="3.98" height="3.98"/>
      <rect class="cls-1" x="821.59" y="335.46" width="3.98" height="3.98"/>
      <rect class="cls-1" x="821.58" y="328.56" width="3.98" height="3.98"/>
      <rect class="cls-1" x="828.68" y="314.27" width="3.98" height="3.98"/>
      <rect class="cls-1" x="843.13" y="314" width="3.98" height="3.98"/>
      <rect class="cls-1" x="835.65" y="307" width="3.98" height="3.98"/>
      <rect class="cls-1" x="835.96" y="299.63" width="3.98" height="3.98"/>
      <rect class="cls-1" x="843.09" y="285.47" width="3.98" height="3.98"/>
      <rect class="cls-1" x="857.17" y="285.38" width="3.98" height="3.98"/>
      <rect class="cls-1" x="850.04" y="278.58" width="3.98" height="3.98"/>
      <rect class="cls-1" x="850.12" y="271.49" width="3.98" height="3.98"/>
      <rect class="cls-1" x="857.39" y="257.05" width="3.98" height="3.98"/>
      <rect class="cls-1" x="864.53" y="249.72" width="3.98" height="3.98"/>
      <rect class="cls-1" x="864.4" y="242.79" width="3.98" height="3.98"/>
      <rect class="cls-1" x="871.47" y="228.32" width="3.98" height="3.98"/>
      <rect class="cls-1" x="878.59" y="214.28" width="3.98" height="3.98"/>
      <rect class="cls-1" x="885.92" y="199.79" width="3.98" height="3.98"/>
      <rect class="cls-1" x="871.42" y="199.65" width="3.98" height="3.98"/>
      <rect class="cls-1" x="878.79" y="192.68" width="3.98" height="3.98"/>
      <rect class="cls-1" x="878.71" y="185.58" width="3.98" height="3.98"/>
      <rect class="cls-1" x="786" y="406.91" width="3.98" height="3.98"/>
      <rect class="cls-1" x="700.07" y="456.89" width="3.98" height="3.98"/>
      <rect class="cls-1" x="714.53" y="400.04" width="3.98" height="3.98"/>
      <rect class="cls-1" x="700.22" y="399.94" width="3.98" height="3.98"/>
      <rect class="cls-1" x="650.18" y="249.79" width="3.98" height="3.98"/>
      <rect class="cls-1" x="657.24" y="256.96" width="3.98" height="3.98"/>
      <rect class="cls-1" x="643.03" y="256.93" width="3.98" height="3.98"/>
      <rect class="cls-1" x="635.76" y="271.11" width="3.98" height="3.98"/>
      <rect class="cls-1" x="621.62" y="271.17" width="3.98" height="3.98"/>
      <rect class="cls-1" x="614.22" y="285.4" width="3.98" height="3.98"/>
      <rect class="cls-1" x="599.96" y="285.4" width="3.98" height="3.98"/>
      <rect class="cls-1" x="743.19" y="171.12" width="3.98" height="3.98"/>
      <rect class="cls-1" x="750.13" y="157.04" width="3.98" height="3.98"/>
      <rect class="cls-1" x="764.23" y="157.04" width="3.98" height="3.98"/>
      <rect class="cls-1" x="771.65" y="142.69" width="3.98" height="3.98"/>
    </g>
  </g>
</svg>