<?xml version="1.0" encoding="UTF-8"?>
<svg id="Layer_2" data-name="Layer 2" xmlns="http://www.w3.org/2000/svg" viewBox="0 0 889.9 946.89">
  <defs>
    <style>
      .cls-1 {
        fill: #fff;
      }
    </style>
  </defs>
  <g id="Layer_1-2" data-name="Layer 1">
    <g>
      <rect class="cls-1" x="257.26" y="942.91" width="3.98" height="3.98" transform="translate(518.49 1889.8) rotate(180)"/>
      <rect class="cls-1" x="242.9" y="942.91" width="3.98" height="3.98" transform="translate(489.78 1889.8) rotate(180)"/>
      <rect class="cls-1" x="249.96" y="928.84" width="3.98" height="3.98" transform="translate(503.9 1861.66) rotate(180)"/>
      <rect class="cls-1" x="242.98" y="914.39" width="3.98" height="3.98" transform="translate(489.95 1832.76) rotate(180)"/>
      <rect class="cls-1" x="235.87" y="900.18" width="3.98" height="3.98" transform="translate(475.72 1804.33) rotate(180)"/>
      <rect class="cls-1" x="235.79" y="892.99" width="3.98" height="3.98" transform="translate(475.56 1789.95) rotate(180)"/>
      <rect class="cls-1" x="243.06" y="885.9" width="3.98" height="3.98" transform="translate(490.1 1775.78) rotate(180)"/>
      <rect class="cls-1" x="228.63" y="885.9" width="3.98" height="3.98" transform="translate(461.23 1775.78) rotate(180)"/>
      <rect class="cls-1" x="228.63" y="857.76" width="3.98" height="3.98" transform="translate(461.23 1719.51) rotate(180)"/>
      <rect class="cls-1" x="221.33" y="842.94" width="3.98" height="3.98" transform="translate(446.65 1689.85) rotate(180)"/>
      <rect class="cls-1" x="221.33" y="835.99" width="3.98" height="3.98" transform="translate(446.65 1675.97) rotate(180)"/>
      <rect class="cls-1" x="214.36" y="828.69" width="3.98" height="3.98" transform="translate(432.69 1661.36) rotate(180)"/>
      <rect class="cls-1" x="228.56" y="828.69" width="3.98" height="3.98" transform="translate(461.11 1661.36) rotate(180)"/>
      <rect class="cls-1" x="221.62" y="814.57" width="3.98" height="3.98" transform="translate(447.22 1633.12) rotate(180)"/>
      <rect class="cls-1" x="214.33" y="800.22" width="3.98" height="3.98" transform="translate(432.64 1604.41) rotate(180)"/>
      <rect class="cls-1" x="207.18" y="785.76" width="3.98" height="3.98" transform="translate(418.34 1575.5) rotate(180)"/>
      <rect class="cls-1" x="207.14" y="778.74" width="3.98" height="3.98" transform="translate(418.26 1561.46) rotate(180)"/>
      <rect class="cls-1" x="214.25" y="771.75" width="3.98" height="3.98" transform="translate(432.48 1547.48) rotate(180)"/>
      <rect class="cls-1" x="199.97" y="771.75" width="3.98" height="3.98" transform="translate(403.92 1547.48) rotate(180)"/>
      <rect class="cls-1" x="157.05" y="771.79" width="3.98" height="3.98" transform="translate(318.09 1547.56) rotate(180)"/>
      <rect class="cls-1" x="164.35" y="757.36" width="3.98" height="3.98" transform="translate(332.67 1518.7) rotate(180)"/>
      <rect class="cls-1" x="164.45" y="750.29" width="3.98" height="3.98" transform="translate(332.87 1504.56) rotate(180)"/>
      <rect class="cls-1" x="192.83" y="757.33" width="3.98" height="3.98" transform="translate(389.64 1518.65) rotate(180)"/>
      <rect class="cls-1" x="207.3" y="757.44" width="3.98" height="3.98" transform="translate(418.58 1518.86) rotate(180)"/>
      <rect class="cls-1" x="207.3" y="750.15" width="3.98" height="3.98" transform="translate(418.58 1504.28) rotate(180)"/>
      <rect class="cls-1" x="192.97" y="750.07" width="3.98" height="3.98" transform="translate(389.92 1504.12) rotate(180)"/>
      <rect class="cls-1" x="214.2" y="743.14" width="3.98" height="3.98" transform="translate(432.38 1490.26) rotate(180)"/>
      <rect class="cls-1" x="200.03" y="743.18" width="3.98" height="3.98" transform="translate(404.05 1490.34) rotate(180)"/>
      <rect class="cls-1" x="185.59" y="743.15" width="3.98" height="3.98" transform="translate(375.15 1490.27) rotate(180)"/>
      <rect class="cls-1" x="171.5" y="743.2" width="3.98" height="3.98" transform="translate(346.98 1490.37) rotate(180)"/>
      <rect class="cls-1" x="185.84" y="736.08" width="3.98" height="3.98" transform="translate(375.65 1476.14) rotate(180)"/>
      <rect class="cls-1" x="199.88" y="736.04" width="3.98" height="3.98" transform="translate(403.73 1476.05) rotate(180)"/>
      <rect class="cls-1" x="207.3" y="728.83" width="3.98" height="3.98" transform="translate(418.58 1461.65) rotate(180)"/>
      <rect class="cls-1" x="193.22" y="728.8" width="3.98" height="3.98" transform="translate(390.41 1461.57) rotate(180)"/>
      <rect class="cls-1" x="178.8" y="728.79" width="3.98" height="3.98" transform="translate(361.58 1461.56) rotate(180)"/>
      <rect class="cls-1" x="207.3" y="721.85" width="3.98" height="3.98" transform="translate(418.58 1447.69) rotate(180)"/>
      <rect class="cls-1" x="193.22" y="721.82" width="3.98" height="3.98" transform="translate(390.41 1447.61) rotate(180)"/>
      <rect class="cls-1" x="178.8" y="721.81" width="3.98" height="3.98" transform="translate(361.58 1447.6) rotate(180)"/>
      <rect class="cls-1" x="185.73" y="714.54" width="3.98" height="3.98" transform="translate(375.44 1433.06) rotate(180)"/>
      <rect class="cls-1" x="200.15" y="714.54" width="3.98" height="3.98" transform="translate(404.27 1433.06) rotate(180)"/>
      <rect class="cls-1" x="214.35" y="714.54" width="3.98" height="3.98" transform="translate(432.68 1433.06) rotate(180)"/>
      <rect class="cls-1" x="228.69" y="714.54" width="3.98" height="3.98" transform="translate(461.36 1433.06) rotate(180)"/>
      <rect class="cls-1" x="214.38" y="714.42" width="3.98" height="3.98" transform="translate(432.74 1432.81) rotate(180)"/>
      <rect class="cls-1" x="200.09" y="714.42" width="3.98" height="3.98" transform="translate(404.15 1432.81) rotate(180)"/>
      <rect class="cls-1" x="185.78" y="714.42" width="3.98" height="3.98" transform="translate(375.54 1432.81) rotate(180)"/>
      <rect class="cls-1" x="178.71" y="700.15" width="3.98" height="3.98" transform="translate(361.39 1404.27) rotate(180)"/>
      <rect class="cls-1" x="185.89" y="707.69" width="3.98" height="3.98" transform="translate(375.76 1419.36) rotate(180)"/>
      <rect class="cls-1" x="200.15" y="707.69" width="3.98" height="3.98" transform="translate(404.28 1419.36) rotate(180)"/>
      <rect class="cls-1" x="214.46" y="707.69" width="3.98" height="3.98" transform="translate(432.9 1419.36) rotate(180)"/>
      <rect class="cls-1" x="207.25" y="700.24" width="3.98" height="3.98" transform="translate(418.47 1404.45) rotate(180)"/>
      <rect class="cls-1" x="193.19" y="700.24" width="3.98" height="3.98" transform="translate(390.35 1404.45) rotate(180)"/>
      <rect class="cls-1" x="221.74" y="700.24" width="3.98" height="3.98" transform="translate(447.45 1404.45) rotate(180)"/>
      <rect class="cls-1" x="192.85" y="693.08" width="3.98" height="3.98" transform="translate(389.68 1390.14) rotate(180)"/>
      <rect class="cls-1" x="200.13" y="685.85" width="3.98" height="3.98" transform="translate(404.23 1375.67) rotate(180)"/>
      <rect class="cls-1" x="185.87" y="685.85" width="3.98" height="3.98" transform="translate(375.71 1375.67) rotate(180)"/>
      <rect class="cls-1" x="185.87" y="678.94" width="3.98" height="3.98" transform="translate(375.71 1361.86) rotate(180)"/>
      <rect class="cls-1" x="192.78" y="671.6" width="3.98" height="3.98" transform="translate(389.53 1347.18) rotate(180)"/>
      <rect class="cls-1" x="192.99" y="664.64" width="3.98" height="3.98" transform="translate(389.96 1333.27) rotate(180)"/>
      <rect class="cls-1" x="199.9" y="657.42" width="3.98" height="3.98" transform="translate(403.78 1318.82) rotate(180)"/>
      <rect class="cls-1" x="185.93" y="657.42" width="3.98" height="3.98" transform="translate(375.85 1318.82) rotate(180)"/>
      <rect class="cls-1" x="185.93" y="650.13" width="3.98" height="3.98" transform="translate(375.85 1304.24) rotate(180)"/>
      <rect class="cls-1" x="192.81" y="643.11" width="3.98" height="3.98" transform="translate(389.6 1290.19) rotate(180)"/>
      <rect class="cls-1" x="178.74" y="643.11" width="3.98" height="3.98" transform="translate(361.46 1290.19) rotate(180)"/>
      <rect class="cls-1" x="185.8" y="628.76" width="3.98" height="3.98" transform="translate(375.57 1261.5) rotate(180)"/>
      <rect class="cls-1" x="192.93" y="614.56" width="3.98" height="3.98" transform="translate(389.84 1233.09) rotate(180)"/>
      <rect class="cls-1" x="178.53" y="614.56" width="3.98" height="3.98" transform="translate(361.05 1233.09) rotate(180)"/>
      <rect class="cls-1" x="185.76" y="600.08" width="3.98" height="3.98" transform="translate(375.5 1204.15) rotate(180)"/>
      <rect class="cls-1" x="178.51" y="585.75" width="3.98" height="3.98" transform="translate(361 1175.48) rotate(180)"/>
      <rect class="cls-1" x="185.7" y="571.65" width="3.98" height="3.98" transform="translate(375.37 1147.28) rotate(180)"/>
      <rect class="cls-1" x="178.53" y="557.43" width="3.98" height="3.98" transform="translate(361.04 1118.83) rotate(180)"/>
      <rect class="cls-1" x="178.47" y="550.25" width="3.98" height="3.98" transform="translate(360.92 1104.48) rotate(180)"/>
      <rect class="cls-1" x="178.53" y="528.55" width="3.98" height="3.98" transform="translate(361.04 1061.07) rotate(180)"/>
      <rect class="cls-1" x="178.47" y="521.37" width="3.98" height="3.98" transform="translate(360.92 1046.72) rotate(180)"/>
      <rect class="cls-1" x="185.71" y="514.53" width="3.98" height="3.98" transform="translate(375.41 1033.03) rotate(180)"/>
      <rect class="cls-1" x="171.59" y="514.53" width="3.98" height="3.98" transform="translate(347.16 1033.03) rotate(180)"/>
      <rect class="cls-1" x="178.63" y="500.37" width="3.98" height="3.98" transform="translate(361.24 1004.72) rotate(180)"/>
      <rect class="cls-1" x="178.69" y="493.2" width="3.98" height="3.98" transform="translate(361.36 990.37) rotate(180)"/>
      <rect class="cls-1" x="164.25" y="493.2" width="3.98" height="3.98" transform="translate(332.47 990.37) rotate(180)"/>
      <rect class="cls-1" x="150.01" y="493.2" width="3.98" height="3.98" transform="translate(304 990.37) rotate(180)"/>
      <rect class="cls-1" x="135.81" y="500.02" width="3.98" height="3.98" transform="translate(275.6 1004.02) rotate(180)"/>
      <rect class="cls-1" x="121.52" y="500.02" width="3.98" height="3.98" transform="translate(247.01 1004.02) rotate(180)"/>
      <rect class="cls-1" x="121.52" y="492.92" width="3.98" height="3.98" transform="translate(247.01 989.82) rotate(180)"/>
      <rect class="cls-1" x="135.82" y="492.92" width="3.98" height="3.98" transform="translate(275.62 989.82) rotate(180)"/>
      <rect class="cls-1" x="185.86" y="486.02" width="3.98" height="3.98" transform="translate(375.69 976.02) rotate(180)"/>
      <rect class="cls-1" x="171.41" y="486.02" width="3.98" height="3.98" transform="translate(346.8 976.02) rotate(180)"/>
      <rect class="cls-1" x="157.18" y="486.02" width="3.98" height="3.98" transform="translate(318.33 976.02) rotate(180)"/>
      <rect class="cls-1" x="128.68" y="485.74" width="3.98" height="3.98" transform="translate(261.33 975.47) rotate(180)"/>
      <rect class="cls-1" x="142.98" y="485.74" width="3.98" height="3.98" transform="translate(289.95 975.47) rotate(180)"/>
      <rect class="cls-1" x="178.68" y="471.8" width="3.98" height="3.98" transform="translate(361.33 947.57) rotate(180)"/>
      <rect class="cls-1" x="164.44" y="471.8" width="3.98" height="3.98" transform="translate(332.86 947.57) rotate(180)"/>
      <rect class="cls-1" x="135.95" y="471.52" width="3.98" height="3.98" transform="translate(275.87 947.02) rotate(180)"/>
      <rect class="cls-1" x="150.25" y="471.52" width="3.98" height="3.98" transform="translate(304.48 947.02) rotate(180)"/>
      <rect class="cls-1" x="171.41" y="478.6" width="3.98" height="3.98" transform="translate(346.8 961.18) rotate(180)"/>
      <rect class="cls-1" x="157.18" y="478.6" width="3.98" height="3.98" transform="translate(318.33 961.18) rotate(180)"/>
      <rect class="cls-1" x="142.98" y="478.32" width="3.98" height="3.98" transform="translate(289.95 960.62) rotate(180)"/>
      <rect class="cls-1" x="178.86" y="464.37" width="3.98" height="3.98" transform="translate(361.7 932.71) rotate(180)"/>
      <rect class="cls-1" x="164.63" y="464.37" width="3.98" height="3.98" transform="translate(333.23 932.71) rotate(180)"/>
      <rect class="cls-1" x="150.44" y="464.09" width="3.98" height="3.98" transform="translate(304.85 932.16) rotate(180)"/>
      <rect class="cls-1" x="143.1" y="457.21" width="3.98" height="3.98" transform="translate(290.18 918.41) rotate(180)"/>
      <rect class="cls-1" x="185.95" y="457.39" width="3.98" height="3.98" transform="translate(375.87 918.76) rotate(180)"/>
      <rect class="cls-1" x="171.71" y="457.39" width="3.98" height="3.98" transform="translate(347.4 918.76) rotate(180)"/>
      <rect class="cls-1" x="157.52" y="457.11" width="3.98" height="3.98" transform="translate(319.02 918.2) rotate(180)"/>
      <rect class="cls-1" x="150.25" y="443.26" width="3.98" height="3.98" transform="translate(304.48 890.49) rotate(180)"/>
      <rect class="cls-1" x="193.1" y="443.43" width="3.98" height="3.98" transform="translate(390.17 890.84) rotate(180)"/>
      <rect class="cls-1" x="178.86" y="443.43" width="3.98" height="3.98" transform="translate(361.7 890.84) rotate(180)"/>
      <rect class="cls-1" x="164.67" y="443.16" width="3.98" height="3.98" transform="translate(333.32 890.29) rotate(180)"/>
      <rect class="cls-1" x="149.9" y="435.93" width="3.98" height="3.98" transform="translate(303.78 875.84) rotate(180)"/>
      <rect class="cls-1" x="192.75" y="436.11" width="3.98" height="3.98" transform="translate(389.47 876.19) rotate(180)"/>
      <rect class="cls-1" x="178.51" y="436.11" width="3.98" height="3.98" transform="translate(361 876.19) rotate(180)"/>
      <rect class="cls-1" x="164.32" y="435.83" width="3.98" height="3.98" transform="translate(332.62 875.64) rotate(180)"/>
      <rect class="cls-1" x="157.23" y="428.78" width="3.98" height="3.98" transform="translate(318.44 861.53) rotate(180)"/>
      <rect class="cls-1" x="200.08" y="428.95" width="3.98" height="3.98" transform="translate(404.13 861.88) rotate(180)"/>
      <rect class="cls-1" x="185.84" y="428.95" width="3.98" height="3.98" transform="translate(375.66 861.88) rotate(180)"/>
      <rect class="cls-1" x="171.65" y="428.68" width="3.98" height="3.98" transform="translate(347.28 861.33) rotate(180)"/>
      <rect class="cls-1" x="164.28" y="414.3" width="3.98" height="3.98" transform="translate(332.53 832.57) rotate(180)"/>
      <rect class="cls-1" x="207.12" y="414.47" width="3.98" height="3.98" transform="translate(418.23 832.92) rotate(180)"/>
      <rect class="cls-1" x="192.89" y="414.47" width="3.98" height="3.98" transform="translate(389.76 832.92) rotate(180)"/>
      <rect class="cls-1" x="178.7" y="414.2" width="3.98" height="3.98" transform="translate(361.37 832.37) rotate(180)"/>
      <rect class="cls-1" x="164.28" y="407.5" width="3.98" height="3.98" transform="translate(332.53 818.97) rotate(180)"/>
      <rect class="cls-1" x="207.12" y="407.67" width="3.98" height="3.98" transform="translate(418.23 819.32) rotate(180)"/>
      <rect class="cls-1" x="192.89" y="407.67" width="3.98" height="3.98" transform="translate(389.76 819.32) rotate(180)"/>
      <rect class="cls-1" x="178.7" y="407.39" width="3.98" height="3.98" transform="translate(361.37 818.76) rotate(180)"/>
      <rect class="cls-1" x="185.56" y="399.99" width="3.98" height="3.98" transform="translate(375.1 803.95) rotate(180)"/>
      <rect class="cls-1" x="228.41" y="400.16" width="3.98" height="3.98" transform="translate(460.79 804.3) rotate(180)"/>
      <rect class="cls-1" x="214.17" y="400.16" width="3.98" height="3.98" transform="translate(432.32 804.3) rotate(180)"/>
      <rect class="cls-1" x="199.98" y="399.88" width="3.98" height="3.98" transform="translate(403.94 803.75) rotate(180)"/>
      <rect class="cls-1" x="171.52" y="400.16" width="3.98" height="3.98" transform="translate(347.02 804.3) rotate(180)"/>
      <rect class="cls-1" x="185.56" y="393.07" width="3.98" height="3.98" transform="translate(375.1 790.12) rotate(180)"/>
      <rect class="cls-1" x="214.17" y="393.25" width="3.98" height="3.98" transform="translate(432.32 790.47) rotate(180)"/>
      <rect class="cls-1" x="199.98" y="392.97" width="3.98" height="3.98" transform="translate(403.94 789.91) rotate(180)"/>
      <rect class="cls-1" x="171.52" y="393.25" width="3.98" height="3.98" transform="translate(347.02 790.47) rotate(180)"/>
      <rect class="cls-1" x="164.51" y="385.79" width="3.98" height="3.98" transform="translate(333 775.57) rotate(180)"/>
      <rect class="cls-1" x="192.9" y="385.74" width="3.98" height="3.98" transform="translate(389.78 775.45) rotate(180)"/>
      <rect class="cls-1" x="221.51" y="385.91" width="3.98" height="3.98" transform="translate(447 775.8) rotate(180)"/>
      <rect class="cls-1" x="235.84" y="378.75" width="3.98" height="3.98" transform="translate(475.67 761.48) rotate(180)"/>
      <rect class="cls-1" x="207.32" y="385.64" width="3.98" height="3.98" transform="translate(418.62 775.25) rotate(180)"/>
      <rect class="cls-1" x="178.86" y="385.91" width="3.98" height="3.98" transform="translate(361.7 775.8) rotate(180)"/>
      <rect class="cls-1" x="164.51" y="378.7" width="3.98" height="3.98" transform="translate(333 761.38) rotate(180)"/>
      <rect class="cls-1" x="192.9" y="378.64" width="3.98" height="3.98" transform="translate(389.78 761.26) rotate(180)"/>
      <rect class="cls-1" x="221.51" y="378.82" width="3.98" height="3.98" transform="translate(447 761.61) rotate(180)"/>
      <rect class="cls-1" x="207.32" y="378.54" width="3.98" height="3.98" transform="translate(418.62 761.06) rotate(180)"/>
      <rect class="cls-1" x="243.03" y="371.35" width="3.98" height="3.98" transform="translate(490.03 746.68) rotate(180)"/>
      <rect class="cls-1" x="178.86" y="378.82" width="3.98" height="3.98" transform="translate(361.7 761.61) rotate(180)"/>
      <rect class="cls-1" x="228.51" y="371.3" width="3.98" height="3.98" transform="translate(461 746.58) rotate(180)"/>
      <rect class="cls-1" x="157.18" y="371.25" width="3.98" height="3.98" transform="translate(318.33 746.47) rotate(180)"/>
      <rect class="cls-1" x="185.57" y="371.19" width="3.98" height="3.98" transform="translate(375.11 746.36) rotate(180)"/>
      <rect class="cls-1" x="214.18" y="371.37" width="3.98" height="3.98" transform="translate(432.33 746.71) rotate(180)"/>
      <rect class="cls-1" x="199.99" y="371.09" width="3.98" height="3.98" transform="translate(403.95 746.16) rotate(180)"/>
      <rect class="cls-1" x="171.53" y="371.37" width="3.98" height="3.98" transform="translate(347.04 746.71) rotate(180)"/>
      <rect class="cls-1" x="243.03" y="364.97" width="3.98" height="3.98" transform="translate(490.03 733.91) rotate(180)"/>
      <rect class="cls-1" x="228.51" y="364.92" width="3.98" height="3.98" transform="translate(461 733.81) rotate(180)"/>
      <rect class="cls-1" x="185.57" y="364.81" width="3.98" height="3.98" transform="translate(375.11 733.59) rotate(180)"/>
      <rect class="cls-1" x="214.18" y="364.98" width="3.98" height="3.98" transform="translate(432.33 733.94) rotate(180)"/>
      <rect class="cls-1" x="199.99" y="364.7" width="3.98" height="3.98" transform="translate(403.95 733.39) rotate(180)"/>
      <rect class="cls-1" x="171.53" y="364.98" width="3.98" height="3.98" transform="translate(347.04 733.94) rotate(180)"/>
      <rect class="cls-1" x="250.2" y="357.16" width="3.98" height="3.98" transform="translate(504.38 718.3) rotate(180)"/>
      <rect class="cls-1" x="235.68" y="357.11" width="3.98" height="3.98" transform="translate(475.34 718.2) rotate(180)"/>
      <rect class="cls-1" x="192.74" y="357" width="3.98" height="3.98" transform="translate(389.45 717.98) rotate(180)"/>
      <rect class="cls-1" x="221.35" y="357.18" width="3.98" height="3.98" transform="translate(446.68 718.33) rotate(180)"/>
      <rect class="cls-1" x="207.16" y="356.9" width="3.98" height="3.98" transform="translate(418.29 717.78) rotate(180)"/>
      <rect class="cls-1" x="178.7" y="357.18" width="3.98" height="3.98" transform="translate(361.38 718.33) rotate(180)"/>
      <rect class="cls-1" x="164.49" y="357.18" width="3.98" height="3.98" transform="translate(332.96 718.33) rotate(180)"/>
      <rect class="cls-1" x="250.2" y="350.07" width="3.98" height="3.98" transform="translate(504.38 704.11) rotate(180)"/>
      <rect class="cls-1" x="271.41" y="343.07" width="3.98" height="3.98" transform="translate(546.8 690.13) rotate(180)"/>
      <rect class="cls-1" x="235.68" y="350.02" width="3.98" height="3.98" transform="translate(475.34 704.01) rotate(180)"/>
      <rect class="cls-1" x="192.74" y="349.91" width="3.98" height="3.98" transform="translate(389.45 703.79) rotate(180)"/>
      <rect class="cls-1" x="221.35" y="350.08" width="3.98" height="3.98" transform="translate(446.68 704.14) rotate(180)"/>
      <rect class="cls-1" x="207.16" y="349.8" width="3.98" height="3.98" transform="translate(418.29 703.58) rotate(180)"/>
      <rect class="cls-1" x="178.7" y="350.08" width="3.98" height="3.98" transform="translate(361.38 704.14) rotate(180)"/>
      <rect class="cls-1" x="164.49" y="350.08" width="3.98" height="3.98" transform="translate(332.96 704.14) rotate(180)"/>
      <rect class="cls-1" x="257.22" y="342.85" width="3.98" height="3.98" transform="translate(518.42 689.68) rotate(180)"/>
      <rect class="cls-1" x="242.7" y="342.8" width="3.98" height="3.98" transform="translate(489.38 689.58) rotate(180)"/>
      <rect class="cls-1" x="199.76" y="342.69" width="3.98" height="3.98" transform="translate(403.5 689.36) rotate(180)"/>
      <rect class="cls-1" x="228.37" y="342.87" width="3.98" height="3.98" transform="translate(460.72 689.71) rotate(180)"/>
      <rect class="cls-1" x="271.41" y="335.97" width="3.98" height="3.98" transform="translate(546.8 675.91) rotate(180)"/>
      <rect class="cls-1" x="257.22" y="335.74" width="3.98" height="3.98" transform="translate(518.42 675.46) rotate(180)"/>
      <rect class="cls-1" x="242.7" y="335.69" width="3.98" height="3.98" transform="translate(489.38 675.36) rotate(180)"/>
      <rect class="cls-1" x="228.37" y="335.76" width="3.98" height="3.98" transform="translate(460.72 675.49) rotate(180)"/>
      <rect class="cls-1" x="278.72" y="329.05" width="3.98" height="3.98" transform="translate(561.42 662.08) rotate(180)"/>
      <rect class="cls-1" x="264.53" y="328.83" width="3.98" height="3.98" transform="translate(533.03 661.63) rotate(180)"/>
      <rect class="cls-1" x="250.01" y="328.78" width="3.98" height="3.98" transform="translate(504 661.53) rotate(180)"/>
      <rect class="cls-1" x="278.72" y="321.62" width="3.98" height="3.98" transform="translate(561.42 647.21) rotate(180)"/>
      <rect class="cls-1" x="264.53" y="321.4" width="3.98" height="3.98" transform="translate(533.03 646.77) rotate(180)"/>
      <rect class="cls-1" x="250.01" y="321.35" width="3.98" height="3.98" transform="translate(504 646.67) rotate(180)"/>
      <rect class="cls-1" x="242.95" y="314.24" width="3.98" height="3.98" transform="translate(489.88 632.45) rotate(180)"/>
      <rect class="cls-1" x="235.68" y="328.84" width="3.98" height="3.98" transform="translate(475.33 661.66) rotate(180)"/>
      <rect class="cls-1" x="300.42" y="314.71" width="3.98" height="3.98" transform="translate(604.82 633.4) rotate(180)"/>
      <rect class="cls-1" x="286.23" y="314.49" width="3.98" height="3.98" transform="translate(576.43 632.95) rotate(180)"/>
      <rect class="cls-1" x="271.71" y="314.44" width="3.98" height="3.98" transform="translate(547.4 632.85) rotate(180)"/>
      <rect class="cls-1" x="271.71" y="307.25" width="3.98" height="3.98" transform="translate(547.4 618.48) rotate(180)"/>
      <rect class="cls-1" x="264.36" y="300.15" width="3.98" height="3.98" transform="translate(532.69 604.27) rotate(180)"/>
      <rect class="cls-1" x="278.64" y="300.15" width="3.98" height="3.98" transform="translate(561.26 604.27) rotate(180)"/>
      <rect class="cls-1" x="293.03" y="300.15" width="3.98" height="3.98" transform="translate(590.04 604.27) rotate(180)"/>
      <rect class="cls-1" x="307.1" y="300.15" width="3.98" height="3.98" transform="translate(618.19 604.27) rotate(180)"/>
      <rect class="cls-1" x="293.03" y="293.16" width="3.98" height="3.98" transform="translate(590.04 590.3) rotate(180)"/>
      <rect class="cls-1" x="307.1" y="293.16" width="3.98" height="3.98" transform="translate(618.19 590.3) rotate(180)"/>
      <rect class="cls-1" x="314.41" y="285.8" width="3.98" height="3.98" transform="translate(632.8 575.58) rotate(180)"/>
      <rect class="cls-1" x="328.48" y="285.8" width="3.98" height="3.98" transform="translate(660.94 575.58) rotate(180)"/>
      <rect class="cls-1" x="285.98" y="285.8" width="3.98" height="3.98" transform="translate(575.93 575.58) rotate(180)"/>
      <rect class="cls-1" x="300.05" y="285.8" width="3.98" height="3.98" transform="translate(604.07 575.58) rotate(180)"/>
      <rect class="cls-1" x="335.86" y="271.71" width="3.98" height="3.98" transform="translate(675.7 547.4) rotate(180)"/>
      <rect class="cls-1" x="307.43" y="271.71" width="3.98" height="3.98" transform="translate(618.83 547.4) rotate(180)"/>
      <rect class="cls-1" x="321.5" y="271.71" width="3.98" height="3.98" transform="translate(646.97 547.4) rotate(180)"/>
      <rect class="cls-1" x="349.98" y="264.48" width="3.98" height="3.98" transform="translate(703.93 532.93) rotate(180)"/>
      <rect class="cls-1" x="371.43" y="257.24" width="3.98" height="3.98" transform="translate(746.83 518.47) rotate(180)"/>
      <rect class="cls-1" x="357.12" y="257.24" width="3.98" height="3.98" transform="translate(718.22 518.47) rotate(180)"/>
      <rect class="cls-1" x="342.75" y="257.24" width="3.98" height="3.98" transform="translate(689.47 518.47) rotate(180)"/>
      <rect class="cls-1" x="328.64" y="257.24" width="3.98" height="3.98" transform="translate(661.26 518.47) rotate(180)"/>
      <rect class="cls-1" x="400.1" y="228.57" width="3.98" height="3.98" transform="translate(804.17 461.12) rotate(180)"/>
      <rect class="cls-1" x="385.79" y="228.57" width="3.98" height="3.98" transform="translate(775.56 461.12) rotate(180)"/>
      <rect class="cls-1" x="371.42" y="228.57" width="3.98" height="3.98" transform="translate(746.82 461.12) rotate(180)"/>
      <rect class="cls-1" x="364.27" y="214.35" width="3.98" height="3.98" transform="translate(732.51 432.68) rotate(180)"/>
      <rect class="cls-1" x="378.62" y="214.35" width="3.98" height="3.98" transform="translate(761.22 432.68) rotate(180)"/>
      <rect class="cls-1" x="407.41" y="214.35" width="3.98" height="3.98" transform="translate(818.81 432.68) rotate(180)"/>
      <rect class="cls-1" x="421.57" y="207.33" width="3.98" height="3.98" transform="translate(847.12 418.64) rotate(180)"/>
      <rect class="cls-1" x="378.6" y="207.32" width="3.98" height="3.98" transform="translate(761.18 418.61) rotate(180)"/>
      <rect class="cls-1" x="386.02" y="199.99" width="3.98" height="3.98" transform="translate(776.02 403.95) rotate(180)"/>
      <rect class="cls-1" x="400.31" y="199.99" width="3.98" height="3.98" transform="translate(200.33 604.28) rotate(-90)"/>
      <rect class="cls-1" x="428.79" y="199.99" width="3.98" height="3.98" transform="translate(228.81 632.76) rotate(-90)"/>
      <rect class="cls-1" x="443.1" y="199.99" width="3.98" height="3.98" transform="translate(243.12 647.07) rotate(-90)"/>
      <rect class="cls-1" x="457.35" y="199.99" width="3.98" height="3.98" transform="translate(257.36 661.31) rotate(-90)"/>
      <rect class="cls-1" x="464.38" y="185.67" width="3.98" height="3.98" transform="translate(278.7 654.03) rotate(-90)"/>
      <rect class="cls-1" x="450.27" y="185.67" width="3.98" height="3.98" transform="translate(264.59 639.92) rotate(-90)"/>
      <rect class="cls-1" x="407.47" y="185.67" width="3.98" height="3.98" transform="translate(221.8 597.12) rotate(-90)"/>
      <rect class="cls-1" x="392.97" y="185.67" width="3.98" height="3.98" transform="translate(207.3 582.62) rotate(-90)"/>
      <rect class="cls-1" x="407.27" y="178.68" width="3.98" height="3.98" transform="translate(228.59 589.94) rotate(-90)"/>
      <rect class="cls-1" x="414.36" y="171.63" width="3.98" height="3.98" transform="translate(242.73 589.96) rotate(-90)"/>
      <rect class="cls-1" x="428.96" y="171.63" width="3.98" height="3.98" transform="translate(257.33 604.57) rotate(-90)"/>
      <rect class="cls-1" x="471.79" y="171.63" width="3.98" height="3.98" transform="translate(300.16 647.4) rotate(-90)"/>
      <rect class="cls-1" x="485.92" y="171.63" width="3.98" height="3.98" transform="translate(314.29 661.53) rotate(-90)"/>
      <rect class="cls-1" x="499.96" y="171.63" width="3.98" height="3.98" transform="translate(328.33 675.56) rotate(-90)"/>
      <rect class="cls-1" x="507.36" y="157.47" width="3.98" height="3.98" transform="translate(349.89 668.8) rotate(-90)"/>
      <rect class="cls-1" x="521.67" y="157.47" width="3.98" height="3.98" transform="translate(364.2 683.11) rotate(-90)"/>
      <rect class="cls-1" x="521.67" y="149.99" width="3.98" height="3.98" transform="translate(371.68 675.64) rotate(-90)"/>
      <rect class="cls-1" x="528.75" y="143.14" width="3.98" height="3.98" transform="translate(385.61 675.87) rotate(-90)"/>
      <rect class="cls-1" x="542.96" y="143.14" width="3.98" height="3.98" transform="translate(399.82 690.08) rotate(-90)"/>
      <rect class="cls-1" x="557.31" y="143.14" width="3.98" height="3.98" transform="translate(414.16 704.42) rotate(-90)"/>
      <rect class="cls-1" x="571.73" y="143.14" width="3.98" height="3.98" transform="translate(428.59 718.85) rotate(-90)"/>
      <rect class="cls-1" x="564.42" y="128.66" width="3.98" height="3.98" transform="translate(435.76 697.05) rotate(-90)"/>
      <rect class="cls-1" x="578.86" y="128.66" width="3.98" height="3.98" transform="translate(450.2 711.5) rotate(-90)"/>
      <rect class="cls-1" x="593.12" y="128.66" width="3.98" height="3.98" transform="translate(464.46 725.75) rotate(-90)"/>
      <rect class="cls-1" x="593.12" y="121.52" width="3.98" height="3.98" transform="translate(471.6 718.62) rotate(-90)"/>
      <rect class="cls-1" x="585.86" y="114.46" width="3.98" height="3.98" transform="translate(471.4 704.3) rotate(-90)"/>
      <rect class="cls-1" x="600.12" y="114.4" width="3.98" height="3.98" transform="translate(485.71 718.5) rotate(-90)"/>
      <rect class="cls-1" x="614.59" y="114.4" width="3.98" height="3.98" transform="translate(500.19 732.97) rotate(-90)"/>
      <rect class="cls-1" x="628.83" y="114.58" width="3.98" height="3.98" transform="translate(514.25 747.39) rotate(-90)"/>
      <rect class="cls-1" x="643.14" y="114.58" width="3.98" height="3.98" transform="translate(528.56 761.7) rotate(-90)"/>
      <rect class="cls-1" x="657.36" y="114.58" width="3.98" height="3.98" transform="translate(542.77 775.91) rotate(-90)"/>
      <rect class="cls-1" x="671.59" y="114.58" width="3.98" height="3.98" transform="translate(557.01 790.15) rotate(-90)"/>
      <rect class="cls-1" x="636.13" y="100.02" width="3.98" height="3.98" transform="translate(536.11 740.12) rotate(-90)"/>
      <rect class="cls-1" x="650.37" y="100.2" width="3.98" height="3.98" transform="translate(550.17 754.54) rotate(-90)"/>
      <rect class="cls-1" x="664.68" y="100.2" width="3.98" height="3.98" transform="translate(564.48 768.85) rotate(-90)"/>
      <rect class="cls-1" x="678.89" y="100.2" width="3.98" height="3.98" transform="translate(578.7 783.07) rotate(-90)"/>
      <rect class="cls-1" x="693.12" y="100.2" width="3.98" height="3.98" transform="translate(592.93 797.3) rotate(-90)"/>
      <rect class="cls-1" x="707.21" y="100.2" width="3.98" height="3.98" transform="translate(607.01 811.38) rotate(-90)"/>
      <rect class="cls-1" x="664.61" y="92.95" width="3.98" height="3.98" transform="translate(571.66 761.54) rotate(-90)"/>
      <rect class="cls-1" x="678.93" y="92.95" width="3.98" height="3.98" transform="translate(585.97 775.86) rotate(-90)"/>
      <rect class="cls-1" x="693.14" y="92.95" width="3.98" height="3.98" transform="translate(600.18 790.07) rotate(-90)"/>
      <rect class="cls-1" x="707.37" y="92.95" width="3.98" height="3.98" transform="translate(614.41 804.3) rotate(-90)"/>
      <rect class="cls-1" x="721.46" y="92.95" width="3.98" height="3.98" transform="translate(628.5 818.39) rotate(-90)"/>
      <rect class="cls-1" x="671.77" y="85.79" width="3.98" height="3.98" transform="translate(585.98 761.54) rotate(-90)"/>
      <rect class="cls-1" x="686.09" y="85.79" width="3.98" height="3.98" transform="translate(600.29 775.86) rotate(-90)"/>
      <rect class="cls-1" x="700.3" y="85.79" width="3.98" height="3.98" transform="translate(614.51 790.07) rotate(-90)"/>
      <rect class="cls-1" x="714.53" y="85.79" width="3.98" height="3.98" transform="translate(628.74 804.3) rotate(-90)"/>
      <rect class="cls-1" x="728.62" y="85.79" width="3.98" height="3.98" transform="translate(642.82 818.39) rotate(-90)"/>
      <rect class="cls-1" x="742.87" y="85.79" width="3.98" height="3.98" transform="translate(657.08 832.64) rotate(-90)"/>
      <rect class="cls-1" x="757.18" y="85.79" width="3.98" height="3.98" transform="translate(671.39 846.95) rotate(-90)"/>
      <rect class="cls-1" x="771.4" y="85.79" width="3.98" height="3.98" transform="translate(685.6 861.17) rotate(-90)"/>
      <rect class="cls-1" x="785.63" y="85.79" width="3.98" height="3.98" transform="translate(699.83 875.4) rotate(-90)"/>
      <rect class="cls-1" x="750.16" y="71.58" width="3.98" height="3.98" transform="translate(678.57 825.72) rotate(-90)"/>
      <rect class="cls-1" x="742.99" y="78.75" width="3.98" height="3.98" transform="translate(664.24 825.72) rotate(-90)"/>
      <rect class="cls-1" x="757" y="78.75" width="3.98" height="3.98" transform="translate(678.25 839.72) rotate(-90)"/>
      <rect class="cls-1" x="793.27" y="64.42" width="3.98" height="3.98" transform="translate(728.85 861.66) rotate(-90)"/>
      <rect class="cls-1" x="807.27" y="64.42" width="3.98" height="3.98" transform="translate(742.85 875.67) rotate(-90)"/>
      <rect class="cls-1" x="764.47" y="71.58" width="3.98" height="3.98" transform="translate(692.89 840.03) rotate(-90)"/>
      <rect class="cls-1" x="778.68" y="71.58" width="3.98" height="3.98" transform="translate(707.1 854.24) rotate(-90)"/>
      <rect class="cls-1" x="792.91" y="71.58" width="3.98" height="3.98" transform="translate(721.33 868.47) rotate(-90)"/>
      <rect class="cls-1" x="800.31" y="57.33" width="3.98" height="3.98" transform="translate(742.98 861.61) rotate(-90)"/>
      <rect class="cls-1" x="814.62" y="57.33" width="3.98" height="3.98" transform="translate(757.29 875.93) rotate(-90)"/>
      <rect class="cls-1" x="828.83" y="57.33" width="3.98" height="3.98" transform="translate(771.51 890.14) rotate(-90)"/>
      <rect class="cls-1" x="843.06" y="57.33" width="3.98" height="3.98" transform="translate(785.74 904.37) rotate(-90)"/>
      <rect class="cls-1" x="857.4" y="57.33" width="3.98" height="3.98" transform="translate(800.07 918.7) rotate(-90)"/>
      <rect class="cls-1" x="871.71" y="57.33" width="3.98" height="3.98" transform="translate(814.38 933.02) rotate(-90)"/>
      <rect class="cls-1" x="885.92" y="57.33" width="3.98" height="3.98" transform="translate(828.6 947.23) rotate(-90)"/>
      <rect class="cls-1" x="435.73" y="157.28" width="3.98" height="3.98" transform="translate(278.45 596.99) rotate(-90)"/>
      <rect class="cls-1" x="435.73" y="150.25" width="3.98" height="3.98" transform="translate(285.47 589.96) rotate(-90)"/>
      <rect class="cls-1" x="443.19" y="142.92" width="3.98" height="3.98" transform="translate(300.26 590.09) rotate(-90)"/>
      <rect class="cls-1" x="457.21" y="142.92" width="3.98" height="3.98" transform="translate(314.29 604.11) rotate(-90)"/>
      <rect class="cls-1" x="464.45" y="128.69" width="3.98" height="3.98" transform="translate(335.76 597.11) rotate(-90)"/>
      <rect class="cls-1" x="471.5" y="114.39" width="3.98" height="3.98" transform="translate(357.11 589.87) rotate(-90)"/>
      <rect class="cls-1" x="485.77" y="114.39" width="3.98" height="3.98" transform="translate(371.37 604.14) rotate(-90)"/>
      <rect class="cls-1" x="492.89" y="100.11" width="3.98" height="3.98" transform="translate(392.77 596.98) rotate(-90)"/>
      <rect class="cls-1" x="492.89" y="92.82" width="3.98" height="3.98" transform="translate(400.07 589.68) rotate(-90)"/>
      <rect class="cls-1" x="500.04" y="85.81" width="3.98" height="3.98" transform="translate(414.23 589.82) rotate(-90)"/>
      <rect class="cls-1" x="514.26" y="85.81" width="3.98" height="3.98" transform="translate(428.45 604.04) rotate(-90)"/>
      <rect class="cls-1" x="521.74" y="71.46" width="3.98" height="3.98" transform="translate(450.27 597.18) rotate(-90)"/>
      <rect class="cls-1" x="521.74" y="64.32" width="3.98" height="3.98" transform="translate(457.42 590.03) rotate(-90)"/>
      <rect class="cls-1" x="528.9" y="57.16" width="3.98" height="3.98" transform="translate(590.03 -471.74) rotate(90)"/>
      <rect class="cls-1" x="543.19" y="57.16" width="3.98" height="3.98" transform="translate(604.32 -486.04) rotate(90)"/>
      <rect class="cls-1" x="550.13" y="42.77" width="3.98" height="3.98" transform="translate(596.87 -507.36) rotate(90)"/>
      <rect class="cls-1" x="550.15" y="35.66" width="3.98" height="3.98" transform="translate(589.79 -514.5) rotate(90)"/>
      <rect class="cls-1" x="557.33" y="28.49" width="3.98" height="3.98" transform="translate(589.79 -528.84) rotate(90)"/>
      <rect class="cls-1" x="571.67" y="28.54" width="3.98" height="3.98" transform="translate(604.19 -543.14) rotate(90)"/>
      <rect class="cls-1" x="578.71" y="14.42" width="3.98" height="3.98" transform="translate(597.11 -564.29) rotate(90)"/>
      <rect class="cls-1" x="578.54" y="7.1" width="3.98" height="3.98" transform="translate(589.62 -571.44) rotate(90)"/>
      <rect class="cls-1" x="585.9" width="3.98" height="3.98" transform="translate(589.87 -585.9) rotate(90)"/>
      <rect class="cls-1" x="421.77" y="214.35" width="3.98" height="3.98" transform="translate(847.52 432.68) rotate(180)"/>
      <rect class="cls-1" x="335.86" y="243.03" width="3.98" height="3.98" transform="translate(675.7 490.03) rotate(180)"/>
      <rect class="cls-1" x="350.31" y="243.03" width="3.98" height="3.98" transform="translate(704.6 490.03) rotate(180)"/>
      <rect class="cls-1" x="350.31" y="235.54" width="3.98" height="3.98" transform="translate(704.6 475.07) rotate(180)"/>
      <rect class="cls-1" x="342.97" y="228.69" width="3.98" height="3.98" transform="translate(689.92 461.35) rotate(180)"/>
      <rect class="cls-1" x="378.83" y="243.03" width="3.98" height="3.98" transform="translate(761.63 490.03) rotate(180)"/>
      <rect class="cls-1" x="321.54" y="264.48" width="3.98" height="3.98" transform="translate(647.06 532.93) rotate(180)"/>
      <rect class="cls-1" x="257.38" y="314.5" width="3.98" height="3.98" transform="translate(518.73 632.98) rotate(180)"/>
      <rect class="cls-1" x="214.18" y="342.59" width="3.98" height="3.98" transform="translate(432.34 689.16) rotate(180)"/>
      <rect class="cls-1" x="185.72" y="342.87" width="3.98" height="3.98" transform="translate(375.42 689.71) rotate(180)"/>
      <rect class="cls-1" x="171.51" y="342.87" width="3.98" height="3.98" transform="translate(347 689.71) rotate(180)"/>
      <rect class="cls-1" x="171.51" y="335.77" width="3.98" height="3.98" transform="translate(347 675.52) rotate(180)"/>
      <rect class="cls-1" x="164.4" y="328.66" width="3.98" height="3.98" transform="translate(332.78 661.29) rotate(180)"/>
      <rect class="cls-1" x="164.4" y="321.53" width="3.98" height="3.98" transform="translate(332.78 647.03) rotate(180)"/>
      <rect class="cls-1" x="164.4" y="300.06" width="3.98" height="3.98" transform="translate(332.78 604.09) rotate(180)"/>
      <rect class="cls-1" x="164.4" y="292.92" width="3.98" height="3.98" transform="translate(332.78 589.83) rotate(180)"/>
      <rect class="cls-1" x="171.41" y="314.52" width="3.98" height="3.98" transform="translate(346.8 633.01) rotate(180)"/>
      <rect class="cls-1" x="157.45" y="314.52" width="3.98" height="3.98" transform="translate(318.88 633.01) rotate(180)"/>
      <rect class="cls-1" x="171.41" y="285.86" width="3.98" height="3.98" transform="translate(346.8 575.7) rotate(180)"/>
      <rect class="cls-1" x="157.45" y="285.86" width="3.98" height="3.98" transform="translate(318.88 575.7) rotate(180)"/>
      <rect class="cls-1" x="164.4" y="271.47" width="3.98" height="3.98" transform="translate(332.78 546.92) rotate(180)"/>
      <rect class="cls-1" x="164.4" y="264.34" width="3.98" height="3.98" transform="translate(332.78 532.66) rotate(180)"/>
      <rect class="cls-1" x="170.82" y="256.6" width="3.98" height="3.98" transform="translate(345.62 517.18) rotate(180)"/>
      <rect class="cls-1" x="157.45" y="257.28" width="3.98" height="3.98" transform="translate(318.88 518.54) rotate(180)"/>
      <rect class="cls-1" x="164.4" y="242.97" width="3.98" height="3.98" transform="translate(332.78 489.92) rotate(180)"/>
      <rect class="cls-1" x="164.4" y="235.84" width="3.98" height="3.98" transform="translate(332.78 475.66) rotate(180)"/>
      <rect class="cls-1" x="171.41" y="228.78" width="3.98" height="3.98" transform="translate(346.8 461.53) rotate(180)"/>
      <rect class="cls-1" x="157.45" y="228.78" width="3.98" height="3.98" transform="translate(318.88 461.53) rotate(180)"/>
      <rect class="cls-1" x="164.4" y="214.35" width="3.98" height="3.98" transform="translate(332.78 432.68) rotate(180)"/>
      <rect class="cls-1" x="164.4" y="207.22" width="3.98" height="3.98" transform="translate(332.78 418.42) rotate(180)"/>
      <rect class="cls-1" x="164.4" y="185.81" width="3.98" height="3.98" transform="translate(332.78 375.61) rotate(180)"/>
      <rect class="cls-1" x="164.4" y="178.68" width="3.98" height="3.98" transform="translate(332.78 361.35) rotate(180)"/>
      <rect class="cls-1" x="157.3" y="171.51" width="3.98" height="3.98" transform="translate(318.57 346.99) rotate(180)"/>
      <rect class="cls-1" x="157.3" y="164.37" width="3.98" height="3.98" transform="translate(318.57 332.73) rotate(180)"/>
      <rect class="cls-1" x="157.3" y="142.82" width="3.98" height="3.98" transform="translate(318.57 289.62) rotate(180)"/>
      <rect class="cls-1" x="157.3" y="114.39" width="3.98" height="3.98" transform="translate(318.57 232.75) rotate(180)"/>
      <rect class="cls-1" x="157.3" y="85.77" width="3.98" height="3.98" transform="translate(318.57 175.51) rotate(180)"/>
      <rect class="cls-1" x="171.41" y="200.16" width="3.98" height="3.98" transform="translate(346.8 404.3) rotate(180)"/>
      <rect class="cls-1" x="157.45" y="200.16" width="3.98" height="3.98" transform="translate(318.88 404.3) rotate(180)"/>
      <rect class="cls-1" x="164.27" y="157.43" width="3.98" height="3.98" transform="translate(332.52 318.84) rotate(180)"/>
      <rect class="cls-1" x="150.31" y="157.43" width="3.98" height="3.98" transform="translate(304.6 318.84) rotate(180)"/>
      <rect class="cls-1" x="164.27" y="128.81" width="3.98" height="3.98" transform="translate(332.52 261.6) rotate(180)"/>
      <rect class="cls-1" x="150.31" y="128.81" width="3.98" height="3.98" transform="translate(304.6 261.6) rotate(180)"/>
      <rect class="cls-1" x="164.27" y="100.08" width="3.98" height="3.98" transform="translate(332.52 204.13) rotate(180)"/>
      <rect class="cls-1" x="150.31" y="100.08" width="3.98" height="3.98" transform="translate(304.6 204.13) rotate(180)"/>
      <rect class="cls-1" x="150.41" y="185.93" width="3.98" height="3.98" transform="translate(304.79 375.83) rotate(180)"/>
      <rect class="cls-1" x="157.39" y="342.87" width="3.98" height="3.98" transform="translate(318.75 689.71) rotate(180)"/>
      <rect class="cls-1" x="157.29" y="400.16" width="3.98" height="3.98" transform="translate(318.55 804.3) rotate(180)"/>
      <rect class="cls-1" x="200.08" y="421.9" width="3.98" height="3.98" transform="translate(404.13 847.78) rotate(180)"/>
      <rect class="cls-1" x="185.84" y="421.9" width="3.98" height="3.98" transform="translate(375.66 847.78) rotate(180)"/>
      <rect class="cls-1" x="171.65" y="421.63" width="3.98" height="3.98" transform="translate(347.28 847.23) rotate(180)"/>
      <rect class="cls-1" x="185.84" y="450.41" width="3.98" height="3.98" transform="translate(375.66 904.8) rotate(180)"/>
      <rect class="cls-1" x="171.61" y="450.41" width="3.98" height="3.98" transform="translate(347.19 904.8) rotate(180)"/>
      <rect class="cls-1" x="157.42" y="450.13" width="3.98" height="3.98" transform="translate(318.81 904.25) rotate(180)"/>
      <rect class="cls-1" x="128.76" y="507.34" width="3.98" height="3.98" transform="translate(261.5 1018.65) rotate(180)"/>
      <rect class="cls-1" x="128.74" y="514.49" width="3.98" height="3.98" transform="translate(261.46 1032.96) rotate(180)"/>
      <rect class="cls-1" x="114.47" y="514.45" width="3.98" height="3.98" transform="translate(232.93 1032.89) rotate(180)"/>
      <rect class="cls-1" x="121.62" y="521.63" width="3.98" height="3.98" transform="translate(247.22 1047.24) rotate(180)"/>
      <rect class="cls-1" x="121.62" y="528.63" width="3.98" height="3.98" transform="translate(247.22 1061.24) rotate(180)"/>
      <rect class="cls-1" x="114.34" y="535.81" width="3.98" height="3.98" transform="translate(232.67 1075.59) rotate(180)"/>
      <rect class="cls-1" x="114.31" y="543.11" width="3.98" height="3.98" transform="translate(232.59 1090.2) rotate(180)"/>
      <rect class="cls-1" x="100.02" y="543.09" width="3.98" height="3.98" transform="translate(204.02 1090.16) rotate(180)"/>
      <rect class="cls-1" x="107.19" y="550.1" width="3.98" height="3.98" transform="translate(218.35 1104.17) rotate(180)"/>
      <rect class="cls-1" x="93" y="550.18" width="3.98" height="3.98" transform="translate(189.97 1104.34) rotate(180)"/>
      <rect class="cls-1" x="85.72" y="542.94" width="3.98" height="3.98" transform="translate(175.42 1089.86) rotate(180)"/>
      <rect class="cls-1" x="92.86" y="557.28" width="3.98" height="3.98" transform="translate(189.7 1118.53) rotate(180)"/>
      <rect class="cls-1" x="85.91" y="571.59" width="3.98" height="3.98" transform="translate(175.8 1147.15) rotate(180)"/>
      <rect class="cls-1" x="71.51" y="571.7" width="3.98" height="3.98" transform="translate(147.01 1147.38) rotate(180)"/>
      <rect class="cls-1" x="78.69" y="578.77" width="3.98" height="3.98" transform="translate(161.36 1161.52) rotate(180)"/>
      <rect class="cls-1" x="78.69" y="586.11" width="3.98" height="3.98" transform="translate(161.36 1176.19) rotate(180)"/>
      <rect class="cls-1" x="71.44" y="600.37" width="3.98" height="3.98" transform="translate(146.85 1204.71) rotate(180)"/>
      <rect class="cls-1" x="64.33" y="607.45" width="3.98" height="3.98" transform="translate(132.63 1218.88) rotate(180)"/>
      <rect class="cls-1" x="64.34" y="614.36" width="3.98" height="3.98" transform="translate(132.66 1232.69) rotate(180)"/>
      <rect class="cls-1" x="57.24" y="628.64" width="3.98" height="3.98" transform="translate(118.46 1261.26) rotate(180)"/>
      <rect class="cls-1" x="42.79" y="628.91" width="3.98" height="3.98" transform="translate(89.56 1261.8) rotate(180)"/>
      <rect class="cls-1" x="50.27" y="635.91" width="3.98" height="3.98" transform="translate(104.52 1275.81) rotate(180)"/>
      <rect class="cls-1" x="49.96" y="643.28" width="3.98" height="3.98" transform="translate(103.9 1290.53) rotate(180)"/>
      <rect class="cls-1" x="42.83" y="657.44" width="3.98" height="3.98" transform="translate(89.64 1318.86) rotate(180)"/>
      <rect class="cls-1" x="28.75" y="657.53" width="3.98" height="3.98" transform="translate(61.47 1319.04) rotate(180)"/>
      <rect class="cls-1" x="35.88" y="664.33" width="3.98" height="3.98" transform="translate(75.74 1332.64) rotate(180)"/>
      <rect class="cls-1" x="35.81" y="671.42" width="3.98" height="3.98" transform="translate(75.59 1346.82) rotate(180)"/>
      <rect class="cls-1" x="28.53" y="685.86" width="3.98" height="3.98" transform="translate(61.04 1375.7) rotate(180)"/>
      <rect class="cls-1" x="21.39" y="693.19" width="3.98" height="3.98" transform="translate(46.75 1390.35) rotate(180)"/>
      <rect class="cls-1" x="21.52" y="700.12" width="3.98" height="3.98" transform="translate(47.02 1404.22) rotate(180)"/>
      <rect class="cls-1" x="14.45" y="714.59" width="3.98" height="3.98" transform="translate(32.87 1433.16) rotate(180)"/>
      <rect class="cls-1" x="7.33" y="728.63" width="3.98" height="3.98" transform="translate(18.64 1461.24) rotate(180)"/>
      <rect class="cls-1" y="743.12" width="3.98" height="3.98" transform="translate(3.98 1490.21) rotate(180)"/>
      <rect class="cls-1" x="14.5" y="743.26" width="3.98" height="3.98" transform="translate(32.98 1490.5) rotate(180)"/>
      <rect class="cls-1" x="7.13" y="750.24" width="3.98" height="3.98" transform="translate(18.24 1504.45) rotate(180)"/>
      <rect class="cls-1" x="7.21" y="757.33" width="3.98" height="3.98" transform="translate(18.4 1518.64) rotate(180)"/>
      <rect class="cls-1" x="99.92" y="536.01" width="3.98" height="3.98" transform="translate(203.82 1075.99) rotate(180)"/>
      <rect class="cls-1" x="185.86" y="486.02" width="3.98" height="3.98" transform="translate(375.69 976.02) rotate(180)"/>
      <rect class="cls-1" x="171.4" y="542.87" width="3.98" height="3.98" transform="translate(346.77 1089.72) rotate(180)"/>
      <rect class="cls-1" x="185.71" y="542.98" width="3.98" height="3.98" transform="translate(375.39 1089.93) rotate(180)"/>
      <rect class="cls-1" x="235.74" y="693.12" width="3.98" height="3.98" transform="translate(475.46 1390.21) rotate(180)"/>
      <rect class="cls-1" x="228.69" y="685.95" width="3.98" height="3.98" transform="translate(461.35 1375.87) rotate(180)"/>
      <rect class="cls-1" x="242.89" y="685.99" width="3.98" height="3.98" transform="translate(489.76 1375.95) rotate(180)"/>
      <rect class="cls-1" x="250.16" y="671.8" width="3.98" height="3.98" transform="translate(504.31 1347.58) rotate(180)"/>
      <rect class="cls-1" x="264.3" y="671.74" width="3.98" height="3.98" transform="translate(532.58 1347.46) rotate(180)"/>
      <rect class="cls-1" x="271.71" y="657.51" width="3.98" height="3.98" transform="translate(547.39 1319.01) rotate(180)"/>
      <rect class="cls-1" x="285.97" y="657.51" width="3.98" height="3.98" transform="translate(575.91 1319.01) rotate(180)"/>
      <rect class="cls-1" x="142.74" y="771.79" width="3.98" height="3.98" transform="translate(289.45 1547.56) rotate(180)"/>
      <rect class="cls-1" x="135.8" y="785.87" width="3.98" height="3.98" transform="translate(275.57 1575.72) rotate(180)"/>
      <rect class="cls-1" x="121.7" y="785.87" width="3.98" height="3.98" transform="translate(247.37 1575.72) rotate(180)"/>
      <rect class="cls-1" x="114.27" y="800.22" width="3.98" height="3.98" transform="translate(232.52 1604.42) rotate(180)"/>
    </g>
  </g>
</svg>